<svg xmlns="http://www.w3.org/2000/svg" width="1024" height="1024" viewBox="0 0 1024 1024">
<g>
<path d="M 678.00 881.95 L 677.50 897.50 L 673.34 897.80 C670.73,897.99 668.87,897.62 668.34,896.80 C666.97,894.68 667.29,852.01 668.68,850.85 C669.34,850.31 671.36,850.01 673.18,850.18 C675.96,850.45 676.55,850.95 676.81,853.23 L 677.13 855.96 L 679.81 853.48 C682.88,850.62 688.38,848.55 690.60,849.40 C691.69,849.82 692.03,851.14 691.81,854.14 C691.51,858.17 691.35,858.35 686.75,859.68 C679.29,861.85 678.59,863.64 678.00,881.95 ZM 669.00 850.87 L 669.00 897.00 L 677.00 897.00 L 677.12 883.25 C677.18,875.69 677.52,868.29 677.87,866.81 C678.88,862.50 682.39,859.28 686.90,858.52 C690.76,857.86 691.00,857.63 691.00,854.41 C691.00,851.17 690.83,851.00 687.42,851.00 C684.78,851.00 683.06,851.78 680.85,854.00 C677.14,857.71 676.22,857.76 675.82,854.25 C675.55,851.96 674.96,851.45 672.25,851.19 ZM 519.16 230.53 C519.35,251.69 519.45,269.00 519.39,269.00 C518.50,269.00 518.00,253.31 518.00,225.36 L 518.00 191.00 L 542.00 191.00 L 542.00 183.06 L 517.50 182.50 L 517.24 144.06 C517.07,119.54 517.34,105.26 517.97,104.63 C520.48,102.12 536.86,105.48 549.50,111.09 C560.35,115.91 576.22,129.52 587.44,143.64 C595.50,153.78 607.85,173.37 608.71,177.38 C608.96,178.55 607.29,176.12 604.99,172.00 C602.68,167.88 599.49,162.56 597.90,160.20 C596.30,157.83 595.00,155.54 595.00,155.10 C595.00,153.83 583.44,140.21 575.12,131.68 C568.55,124.94 556.96,116.18 549.21,112.09 C543.93,109.31 528.72,105.00 524.17,105.00 L 519.29 105.00 L 518.56 133.47 C518.16,149.13 518.15,166.44 518.54,171.94 L 519.25 181.94 L 542.50 182.50 L 542.50 191.50 L 530.66 191.78 L 518.82 192.07 ZM 586.00 869.25 C586.28,884.51 586.16,897.00 585.75,897.00 C585.34,897.00 585.00,884.87 585.00,870.04 L 585.00 843.07 L 575.25 842.79 L 565.50 842.50 L 565.50 832.50 L 616.50 832.50 L 616.82 836.38 C616.99,838.52 616.64,840.77 616.02,841.38 C615.41,842.00 610.77,842.72 605.70,843.00 L 596.50 843.50 L 596.86 863.78 C597.22,883.51 596.53,897.00 595.17,897.00 C594.00,897.00 594.96,843.76 596.16,842.31 C596.91,841.40 600.10,841.00 606.62,841.00 L 616.00 841.00 L 616.00 833.00 L 591.01 833.00 C572.27,833.00 567.05,833.00 566.10,835.01 C565.73,835.79 566.00,836.87 566.38,838.37 L 566.40 838.46 C567.00,840.83 567.38,840.94 576.26,841.21 L 585.50 841.50 ZM 243.03 889.48 C236.12,893.06 228.65,889.65 229.20,883.18 C229.60,878.38 233.36,876.22 242.00,875.81 L 248.50 875.50 L 248.81 878.69 C249.21,882.87 246.69,887.59 243.03,889.48 ZM 744.31 346.50 C744.20,352.55 743.65,359.30 743.07,361.50 L 742.03 365.50 L 742.52 361.50 C742.79,359.30 743.31,352.66 743.66,346.75 L 744.31 336.00 L 702.71 336.00 C679.84,336.00 660.88,335.61 660.58,335.13 C660.29,334.66 661.63,332.23 663.57,329.75 L 667.09 325.23 L 705.50 324.49 L 743.91 323.75 L 744.29 317.63 C744.65,311.69 744.66,311.72 744.58,318.50 L 744.50 325.50 L 667.25 326.02 L 664.63 329.99 C663.18,332.17 662.00,334.19 662.00,334.47 C662.00,334.75 680.56,335.10 703.25,335.24 L 744.50 335.50 ZM 458.89 297.63 C457.15,299.73 428.17,299.61 427.36,297.50 C425.94,293.81 427.57,293.14 438.69,292.81 C454.01,292.37 458.71,292.79 459.43,294.68 C459.76,295.54 459.52,296.87 458.89,297.63 ZM 231.57 887.43 C234.06,889.92 242.43,889.53 244.96,886.81 C246.08,885.61 247.00,884.31 247.00,883.94 C247.00,883.56 247.28,881.84 247.62,880.12 L 248.25 877.00 L 242.38 877.00 C232.48,877.01 226.71,882.57 231.57,887.43 ZM 378.00 767.94 C378.00,784.82 377.63,795.11 377.00,795.50 C376.34,795.91 376.00,786.71 376.00,768.67 C376.00,744.56 376.19,741.14 377.58,740.61 C378.45,740.27 391.93,740.00 407.54,740.00 L 435.91 740.00 L 436.61 726.50 L 437.00 741.00 L 378.00 741.00 ZM 428.35 296.75 C428.79,297.47 441.07,297.70 453.22,297.22 C457.84,297.04 458.83,296.71 458.36,295.50 C457.89,294.26 455.27,294.00 443.45,294.00 C430.15,294.00 427.00,294.57 428.35,296.75 ZM 587.08 239.00 C586.58,239.00 585.34,239.24 584.33,239.53 C583.23,239.85 583.40,239.59 584.75,238.88 C585.99,238.23 587.00,237.43 587.00,237.10 C587.00,236.77 584.55,235.54 581.55,234.36 L 576.11 232.23 L 575.69 234.36 C575.33,236.20 575.25,236.14 575.14,233.95 C575.06,232.55 574.61,230.97 574.13,230.45 C573.21,229.45 571.53,220.20 572.43,221.10 C572.72,221.38 573.32,223.39 573.77,225.56 C574.45,228.84 575.08,229.60 577.54,230.13 C581.83,231.05 590.00,231.13 590.00,230.25 C589.99,229.84 588.65,227.48 587.00,225.00 C581.92,217.36 583.41,216.86 590.98,223.67 C595.11,227.38 596.36,228.05 597.07,226.92 C597.80,225.77 597.97,225.83 597.98,227.25 C598.01,229.78 595.99,229.34 592.01,225.93 C588.29,222.75 586.82,223.47 589.43,227.20 C592.19,231.15 591.47,231.99 585.25,232.08 L 579.50 232.17 L 583.75 234.12 C587.48,235.84 589.64,239.00 587.08,239.00 ZM 241.45 523.17 C246.53,527.60 228.27,515.88 219.57,509.11 C216.30,506.58 213.17,504.19 212.60,503.80 C212.02,503.42 211.83,502.84 212.16,502.51 C212.49,502.17 217.20,504.11 222.63,506.80 C228.06,509.49 235.10,512.72 238.29,513.98 C241.47,515.23 243.90,516.44 243.68,516.65 C243.47,516.87 238.43,515.01 232.50,512.52 C226.56,510.03 221.46,508.00 221.16,508.00 C220.00,508.00 224.88,511.87 232.50,516.98 C236.90,519.93 240.93,522.71 241.45,523.17 ZM 409.57 859.51 C409.92,861.37 409.97,863.48 409.68,864.20 C409.39,864.91 409.12,863.98 409.08,862.13 C409.02,859.61 408.02,857.79 405.12,854.88 C401.39,851.16 400.97,851.00 394.65,851.00 C388.70,851.00 387.73,851.30 384.50,854.13 C382.54,855.86 380.64,856.98 380.29,856.62 C378.90,855.24 386.83,850.50 392.22,849.49 C399.44,848.13 408.40,853.31 409.57,859.51 ZM 493.79 374.25 C494.00,379.34 493.80,384.49 493.34,385.70 C492.79,387.14 492.47,384.57 492.41,378.20 C492.35,372.86 492.13,367.38 491.91,366.00 C491.55,363.81 491.90,363.46 494.75,363.19 C497.82,362.89 498.01,362.64 498.15,358.69 C498.26,355.48 498.40,355.17 498.73,357.37 C499.43,362.07 498.26,365.00 495.68,365.00 C493.45,365.00 493.41,365.18 493.79,374.25 ZM 616.97 219.75 C616.93,220.79 609.00,232.64 609.00,231.66 C609.00,231.22 610.22,228.75 611.71,226.18 L 614.41 221.50 L 610.14 225.31 C604.92,229.96 602.55,229.86 602.37,224.99 L 602.24 221.50 L 602.68 224.75 C602.93,226.54 603.68,228.00 604.36,228.00 C605.03,228.00 607.57,225.98 610.00,223.50 C614.00,219.43 617.05,217.79 616.97,219.75 ZM 515.97 323.91 C516.54,329.64 516.84,334.49 516.64,334.69 C516.10,335.24 515.02,328.08 515.01,323.83 C514.99,317.45 513.57,315.88 512.91,321.50 C512.34,326.29 512.31,326.21 512.17,319.50 C512.03,312.30 513.23,307.93 514.35,311.62 C514.67,312.65 515.39,318.18 515.97,323.91 ZM 251.00 395.00 C251.00,399.67 250.67,401.00 249.50,401.00 C248.33,401.00 248.00,399.67 248.00,395.00 C248.00,390.33 248.33,389.00 249.50,389.00 C250.67,389.00 251.00,390.33 251.00,395.00 ZM 615.44 237.70 C616.01,239.18 614.42,239.49 613.54,238.07 C612.90,237.03 613.87,236.28 619.00,233.83 L 622.50 232.16 L 619.50 231.97 C616.74,231.79 616.82,231.70 620.50,230.94 C630.17,228.94 630.74,230.81 621.47,234.09 C617.10,235.63 615.10,236.82 615.44,237.70 ZM 429.47 421.06 C428.85,422.05 428.64,422.06 425.60,421.28 C424.17,420.92 424.03,420.60 425.02,419.99 C425.98,419.40 425.41,418.61 422.92,417.09 C421.04,415.95 419.91,415.01 420.41,415.00 C422.31,415.00 430.02,420.15 429.47,421.06 ZM 601.18 216.50 C600.70,213.69 600.59,213.82 599.43,218.50 C598.75,221.25 598.15,222.75 598.10,221.83 C597.94,219.04 600.29,210.00 601.17,210.00 C601.63,210.00 601.93,212.14 601.85,214.75 C601.73,218.44 601.59,218.83 601.18,216.50 ZM 648.85 371.50 C648.97,375.62 647.88,378.55 646.68,377.35 C646.31,376.97 646.07,374.60 646.16,372.08 C646.31,367.82 646.36,367.74 646.83,371.00 L 647.35 374.50 L 648.04 371.00 L 648.74 367.50 ZM 444.06 190.07 C443.39,189.01 443.04,189.54 442.74,192.07 L 442.32 195.50 L 442.16 191.83 C442.07,189.81 442.27,187.45 442.61,186.58 C443.64,183.89 445.00,184.84 444.98,188.25 C444.97,190.59 444.71,191.10 444.06,190.07 ZM 599.50 180.05 C596.75,180.47 593.15,180.82 591.50,180.81 C588.58,180.80 588.57,180.78 591.00,180.00 C592.38,179.56 595.97,179.21 599.00,179.23 L 604.50 179.27 ZM 523.50 449.00 C524.29,450.27 521.97,450.27 520.00,449.00 C518.78,448.21 518.91,448.03 520.69,448.02 C521.90,448.01 523.16,448.45 523.50,449.00 ZM 339.09 337.69 C339.70,338.30 340.02,339.62 339.81,340.64 C339.45,342.43 339.42,342.43 338.72,340.67 C337.61,337.84 337.79,336.39 339.09,337.69 Z" fill="rgb(132,141,145)"/>
<path d="M 744.31 346.50 L 744.50 335.50 L 703.25 335.24 C680.56,335.10 662.00,334.75 662.00,334.47 C662.00,334.19 663.18,332.17 664.63,329.99 L 667.25 326.02 L 744.50 325.50 L 744.58 318.50 C744.66,311.72 744.65,311.69 744.29,317.63 L 744.13 320.19 L 743.66 309.12 C742.70,286.49 737.32,265.31 725.73,238.50 C719.96,225.15 705.01,200.58 697.44,192.00 C696.23,190.62 693.68,187.74 691.78,185.59 L 688.32 181.68 L 677.41 182.86 C658.45,184.92 628.56,187.94 626.87,187.97 C625.45,188.00 625.56,188.82 627.76,194.25 C633.83,209.27 638.65,223.62 641.46,235.00 C645.41,250.99 649.37,273.48 648.86,277.00 C648.53,279.30 648.15,279.47 644.00,279.16 C641.53,278.97 639.39,278.71 639.25,278.57 C639.11,278.44 638.26,273.64 637.36,267.92 C636.33,261.35 635.81,252.82 635.96,244.84 C636.29,227.29 632.78,215.92 624.61,208.07 C622.44,205.99 620.05,202.07 618.51,198.07 C616.89,193.88 616.28,191.55 614.77,190.36 C612.93,188.91 609.76,189.16 601.81,189.77 C600.57,189.86 599.22,189.96 597.73,190.07 C588.62,190.73 580.45,191.00 579.58,190.67 C578.47,190.24 578.00,188.75 578.00,185.65 L 578.00 181.23 L 584.75 180.58 C586.37,180.42 588.56,180.23 590.89,180.04 C588.57,180.78 588.62,180.80 591.50,180.81 C593.15,180.82 596.75,180.47 599.50,180.05 L 604.50 179.27 L 601.22 179.25 C605.06,178.93 608.00,178.44 608.00,178.11 C608.00,177.38 602.65,167.88 599.15,162.12 C600.84,164.82 603.19,168.77 604.99,172.00 C607.29,176.12 608.96,178.55 608.71,177.38 C607.85,173.37 595.50,153.78 587.44,143.64 C576.22,129.52 560.35,115.91 549.50,111.09 C536.86,105.48 520.48,102.12 517.97,104.63 C517.34,105.26 517.07,119.54 517.24,144.06 L 517.50 182.50 L 542.00 183.06 L 542.00 191.00 L 518.00 191.00 L 518.00 225.36 C518.00,253.31 518.50,269.00 519.39,269.00 C519.43,269.00 519.40,262.05 519.33,251.58 C519.76,267.44 520.65,280.71 522.15,295.00 C522.75,300.77 523.41,307.30 523.62,309.50 C524.83,322.57 526.32,333.88 528.18,344.00 C531.19,360.44 532.44,364.55 534.30,364.22 C536.85,363.77 537.34,365.93 535.97,371.63 C535.03,375.54 534.97,377.64 535.73,379.26 C536.32,380.49 537.81,385.55 539.06,390.50 C540.30,395.45 543.21,404.67 545.53,411.00 L 549.75 422.50 L 553.73 422.80 L 557.70 423.10 L 556.18 429.47 L 554.66 435.84 L 559.95 446.50 C562.87,452.36 565.93,457.42 566.76,457.74 C569.09,458.63 571.06,456.86 572.58,452.49 C574.13,448.04 574.49,435.92 573.11,434.45 C571.11,432.30 570.00,419.03 570.00,397.20 C570.00,381.16 569.51,370.76 568.40,363.31 C566.92,353.33 566.93,352.00 568.50,344.70 C570.18,336.96 570.17,336.81 568.18,335.41 C567.06,334.63 565.63,332.42 565.00,330.49 C563.76,326.74 565.16,320.71 569.11,312.84 C570.12,310.83 571.25,307.32 571.61,305.03 C572.21,301.27 571.97,300.56 569.00,297.50 C566.18,294.59 565.59,293.09 564.82,286.81 C564.33,282.79 563.66,277.48 563.34,275.00 C563.01,272.41 561.75,269.30 560.38,267.67 C557.24,263.94 557.13,256.46 560.13,250.45 C562.13,246.45 562.19,245.70 561.03,238.84 C560.34,234.80 559.41,227.45 558.95,222.50 C558.49,217.55 557.62,210.80 557.03,207.50 C556.43,204.20 555.68,199.02 555.35,196.00 C555.02,192.98 554.30,189.93 553.74,189.23 C553.15,188.49 552.99,185.71 553.37,182.48 C553.89,178.08 553.73,177.00 552.58,177.00 C549.73,177.00 548.00,173.96 548.00,168.98 C548.00,164.65 548.31,163.96 550.75,162.79 C553.00,161.72 553.60,160.65 554.03,156.90 C554.70,151.10 557.23,147.22 561.52,145.43 C565.94,143.58 567.74,144.41 568.99,148.85 C569.89,152.05 569.77,152.67 568.01,153.87 C566.67,154.79 566.00,156.36 566.00,158.60 C566.00,161.29 566.57,162.25 568.92,163.46 C572.64,165.38 573.72,169.70 571.54,173.93 C570.66,175.62 569.29,177.00 568.47,177.00 C566.94,177.00 566.44,180.10 567.75,181.42 C568.16,181.83 568.56,186.97 568.64,192.84 C568.77,201.96 569.27,205.68 573.04,222.64 C572.80,221.82 572.57,221.24 572.43,221.10 C571.53,220.20 573.21,229.45 574.13,230.45 C574.61,230.97 575.06,232.55 575.14,233.95 C575.25,236.14 575.33,236.20 575.69,234.36 L 576.00 232.79 L 576.00 235.89 C576.00,237.93 576.54,240.14 577.20,240.80 C577.86,241.46 578.56,242.00 578.75,242.00 C579.50,242.00 586.64,237.67 586.98,237.04 C586.99,237.06 587.00,237.08 587.00,237.10 C587.00,237.43 585.99,238.23 584.75,238.88 C583.40,239.59 583.23,239.85 584.33,239.53 C585.34,239.24 586.58,239.00 587.08,239.00 C589.64,239.00 587.48,235.84 583.75,234.12 L 579.50 232.17 L 585.25 232.08 C591.47,231.99 592.19,231.15 589.43,227.20 C586.82,223.47 588.29,222.75 592.01,225.93 C595.99,229.34 598.01,229.78 597.98,227.25 C597.98,226.28 597.89,225.94 597.61,226.19 C597.87,225.46 597.98,224.34 597.98,222.83 C597.99,222.28 598.03,221.64 598.11,220.95 C598.09,221.28 598.08,221.58 598.10,221.83 C598.15,222.75 598.75,221.25 599.43,218.50 C600.59,213.82 600.70,213.69 601.18,216.50 C601.59,218.83 601.73,218.44 601.85,214.75 C601.93,212.14 601.63,210.00 601.17,210.00 C601.63,210.00 602.00,211.96 602.00,214.36 C602.00,221.31 603.16,227.87 604.39,228.00 C604.38,228.00 604.37,228.00 604.36,228.00 C603.68,228.00 602.93,226.54 602.68,224.75 L 602.24 221.50 L 602.37 224.99 C602.55,229.86 604.92,229.96 610.14,225.31 L 614.41 221.50 L 611.71 226.18 C610.22,228.75 609.00,231.22 609.00,231.66 C609.00,232.07 610.39,230.24 612.00,227.89 C610.36,230.58 610.23,231.53 611.12,232.10 C612.88,233.21 613.73,233.21 615.82,232.12 C617.11,231.43 620.00,230.84 622.64,230.54 C621.99,230.65 621.27,230.78 620.50,230.94 C616.82,231.70 616.74,231.79 619.50,231.97 L 622.50 232.16 L 619.00 233.83 C613.87,236.28 612.90,237.03 613.54,238.07 C614.42,239.49 616.01,239.18 615.44,237.70 C615.43,237.67 615.42,237.64 615.41,237.61 C615.98,238.25 618.49,239.41 621.34,240.32 C624.47,241.33 626.77,242.57 626.45,243.07 C626.14,243.58 623.21,244.00 619.94,244.00 L 614.00 244.00 L 614.00 249.53 C614.00,252.57 614.67,256.68 615.50,258.65 C616.33,260.63 617.01,263.88 617.02,265.87 C617.03,270.17 617.33,270.64 622.37,274.40 C624.66,276.11 627.05,279.16 628.24,281.89 C633.17,293.22 634.22,295.18 637.14,298.51 C640.71,302.57 641.84,302.19 645.09,295.82 C646.16,293.72 647.52,292.00 648.12,292.00 C649.68,292.00 663.76,298.80 664.42,299.87 C664.73,300.38 664.29,302.45 663.44,304.48 C662.39,307.01 662.11,309.56 662.56,312.57 C663.58,319.36 662.55,321.68 656.97,325.11 C652.60,327.80 652.00,328.58 652.00,331.53 C652.00,336.19 647.40,350.33 645.25,352.27 C644.28,353.15 642.19,354.11 640.62,354.39 C639.04,354.68 637.65,355.04 637.51,355.21 C637.38,355.37 637.70,361.12 638.23,368.00 C639.74,387.70 640.20,408.05 639.17,409.33 C638.03,410.76 636.55,454.42 637.52,458.25 C638.13,460.65 638.70,461.00 642.05,461.00 C644.15,461.00 649.61,460.10 654.19,459.01 C664.42,456.55 666.25,456.48 663.50,458.63 C660.70,460.82 638.11,471.98 628.50,475.92 C624.10,477.73 616.67,480.77 612.00,482.68 C598.17,488.35 560.24,500.73 545.34,504.45 C510.84,513.04 480.86,518.24 446.50,521.59 C431.41,523.06 376.23,524.24 362.50,523.39 C340.12,522.00 311.60,518.36 292.00,514.41 C273.67,510.70 247.00,502.98 238.50,498.92 L 235.50 497.48 L 234.94 484.99 C234.63,478.12 233.84,470.93 233.19,469.01 C231.17,463.06 231.68,457.54 234.56,454.11 C237.06,451.14 237.11,450.79 236.60,439.78 C236.32,433.58 235.80,425.49 235.46,421.82 C234.93,416.14 235.13,414.72 236.82,412.32 C238.57,409.83 238.87,407.24 239.40,390.19 C239.88,375.10 240.37,370.19 241.66,367.69 C244.72,361.77 262.00,345.69 273.30,338.25 C286.72,329.41 312.28,316.63 321.18,314.31 C327.52,312.66 327.97,312.66 329.78,314.30 C330.82,315.25 333.17,320.63 334.98,326.26 C336.80,331.89 338.67,336.93 339.14,337.45 C339.61,337.97 340.00,339.12 340.00,340.00 C340.00,341.83 346.13,360.84 347.33,362.75 C347.77,363.44 349.11,363.78 350.31,363.49 C354.68,362.47 355.30,364.03 355.99,377.85 C356.35,385.01 357.11,391.46 357.67,392.18 C358.63,393.42 365.10,409.98 366.44,414.62 C366.96,416.43 368.09,416.85 374.03,417.43 C380.87,418.11 381.00,418.17 381.00,420.98 C381.00,425.70 381.95,427.00 385.41,427.00 C389.47,427.00 391.00,425.45 391.00,421.30 L 391.00 418.00 L 397.46 418.00 C401.01,418.00 408.43,418.49 413.94,419.09 C419.45,419.69 424.53,419.99 425.23,419.76 C425.86,419.55 424.81,418.37 422.85,417.05 L 422.92 417.09 C425.41,418.61 425.98,419.40 425.02,419.99 C424.03,420.60 424.17,420.92 425.60,421.28 C428.64,422.06 428.85,422.05 429.47,421.06 C430.02,420.15 422.31,415.00 420.41,415.00 C420.02,415.01 420.61,415.57 421.76,416.35 L 418.00 413.97 L 418.00 381.64 C418.00,350.58 417.92,349.24 416.00,347.50 C414.11,345.79 414.00,344.42 414.00,321.82 L 414.00 297.95 L 416.36 297.05 C419.43,295.89 420.22,293.65 419.43,288.38 C418.92,284.96 419.21,283.52 420.89,281.15 C422.05,279.52 423.00,277.96 423.00,277.68 C423.00,277.40 424.58,274.78 426.50,271.86 L 430.00 266.55 L 430.00 253.45 C430.00,240.59 430.07,240.20 433.64,231.95 C438.24,221.33 439.92,214.31 441.16,200.50 C441.55,196.16 441.86,192.98 442.14,190.68 C442.14,191.07 442.14,191.46 442.16,191.83 L 442.32 195.50 L 442.74 192.07 C443.04,189.54 443.39,189.01 444.06,190.07 C444.62,190.95 444.89,190.70 444.97,189.12 C446.06,194.52 447.61,204.36 448.73,213.50 C449.00,215.70 449.57,217.95 450.00,218.50 C450.42,219.05 451.10,221.07 451.50,223.00 C451.90,224.93 453.75,229.56 455.61,233.31 C458.97,240.06 459.00,240.22 459.00,254.00 C459.00,261.94 459.42,268.14 459.98,268.48 C460.51,268.82 462.61,272.11 464.64,275.79 C466.66,279.48 468.94,283.23 469.70,284.13 C470.60,285.18 470.98,287.63 470.79,291.13 C470.52,296.11 470.67,296.52 472.85,296.83 L 475.21 297.17 L 474.85 320.33 C474.50,342.46 474.39,343.63 472.25,346.50 C470.02,349.49 470.01,349.69 469.61,397.11 C469.39,423.29 469.57,445.30 470.01,446.01 C470.56,446.90 471.66,445.64 473.52,441.96 C475.82,437.42 476.14,435.82 475.62,431.39 C475.28,428.52 474.73,425.46 474.39,424.59 C473.93,423.37 474.45,423.00 476.64,422.98 C480.82,422.96 482.03,421.83 484.20,415.86 C490.26,399.25 492.16,390.66 492.26,379.50 C492.29,375.26 492.23,371.01 492.11,368.37 C492.25,370.80 492.37,374.53 492.41,378.20 C492.47,384.57 492.79,387.14 493.34,385.70 C493.80,384.49 494.00,379.34 493.79,374.25 C493.41,365.18 493.45,365.00 495.68,365.00 C498.26,365.00 499.43,362.07 498.73,357.37 C498.57,356.34 498.46,355.86 498.38,355.97 C498.56,354.97 498.81,354.02 499.08,353.32 C500.34,350.02 502.32,337.62 503.84,323.50 C506.40,299.71 507.22,281.75 507.73,238.25 L 508.28 192.00 L 451.95 192.00 L 450.98 189.43 C450.44,188.02 450.00,185.76 450.00,184.40 L 450.00 181.93 L 478.75 182.21 L 507.50 182.50 L 507.76 144.06 C507.91,122.76 507.63,105.23 507.14,104.74 C505.65,103.25 491.50,105.78 483.03,109.05 C478.66,110.73 471.58,114.40 467.29,117.19 C451.22,127.65 430.57,151.94 420.17,172.63 C418.48,176.00 417.37,179.04 417.71,179.38 C418.05,179.72 420.40,180.00 422.92,180.01 C425.44,180.01 429.88,180.30 432.80,180.65 L 438.10 181.29 L 437.50 190.50 L 432.50 190.49 C429.75,190.49 424.08,190.13 419.90,189.71 L 412.29 188.94 L 409.20 195.87 C401.33,213.46 392.80,242.81 390.06,261.73 C386.13,288.81 384.92,300.20 384.72,312.00 L 384.50 325.50 L 395.00 326.00 C405.03,326.48 405.51,326.60 405.83,328.81 C406.01,330.08 405.43,332.21 404.55,333.56 C403.04,335.87 402.43,336.00 393.33,336.00 L 383.71 336.00 L 384.39 349.75 C385.01,362.27 385.95,370.92 389.13,393.17 C389.73,397.39 389.92,401.32 389.55,401.92 C388.51,403.60 383.44,403.19 381.24,401.25 C379.55,399.76 378.93,396.56 377.12,380.00 C375.94,369.27 374.65,355.10 374.24,348.50 L 373.50 336.50 L 359.79 336.22 L 346.08 335.94 L 345.15 332.72 C344.64,330.95 343.89,328.71 343.50,327.75 C342.84,326.13 343.87,326.00 357.27,326.00 C367.66,326.00 372.04,325.65 372.75,324.75 C373.29,324.06 374.04,317.88 374.41,311.00 C376.70,268.58 384.60,229.99 397.94,196.14 C399.07,193.27 400.00,190.35 400.00,189.64 C400.00,188.71 395.84,188.01 384.75,187.09 C376.36,186.39 364.33,185.17 358.00,184.37 C351.67,183.57 344.44,182.66 341.93,182.34 C337.48,181.78 337.26,181.88 333.93,186.09 C310.59,215.56 295.49,245.37 287.63,277.50 C286.15,283.55 284.53,290.08 284.04,292.00 C283.54,293.92 282.59,301.80 281.93,309.50 C281.27,317.20 280.23,324.14 279.61,324.92 C278.38,326.50 265.57,335.00 264.43,335.00 C262.95,335.00 264.85,300.56 266.93,289.50 C271.76,263.93 276.67,249.26 289.17,223.13 C310.00,179.57 347.82,139.72 391.50,115.32 C412.36,103.67 444.00,92.69 468.50,88.62 C491.73,84.75 527.26,84.03 548.00,87.01 C582.80,92.01 615.32,103.30 643.00,119.98 C654.79,127.08 654.71,127.03 668.50,137.93 C677.87,145.33 697.42,163.77 703.04,170.50 C711.84,181.06 714.70,184.89 722.43,196.52 C738.35,220.49 748.40,243.53 757.07,276.00 C763.05,298.35 764.42,344.03 759.92,371.00 C756.94,388.83 757.05,388.57 749.87,396.36 C742.74,404.11 729.29,415.63 728.41,414.75 C728.12,414.46 729.24,410.91 730.89,406.86 C733.59,400.22 737.01,389.43 739.88,378.50 C740.81,374.98 742.39,362.22 743.30,352.25 C743.01,356.32 742.71,359.98 742.52,361.50 L 742.03 365.50 L 743.07 361.50 C743.65,359.30 744.20,352.55 744.31,346.50 ZM 621.25 796.12 C618.51,796.57 601.62,796.52 597.50,796.06 L 592.50 795.50 L 592.20 726.75 L 591.90 658.00 L 624.12 658.00 C657.42,658.00 664.99,658.62 675.50,662.24 C687.00,666.19 694.19,672.76 698.17,682.92 C699.98,687.57 700.34,690.50 700.32,700.50 C700.29,711.70 700.09,712.93 697.29,719.00 C693.69,726.79 686.40,734.01 678.47,737.64 C675.46,739.02 673.00,740.49 673.00,740.91 C673.00,741.67 686.46,765.60 687.96,767.50 C689.20,769.07 704.00,794.89 704.00,795.48 C704.00,795.76 696.84,796.00 688.09,796.00 L 672.18 796.00 L 667.22 786.75 C664.49,781.66 660.34,773.90 657.99,769.50 C655.65,765.10 653.39,761.05 652.99,760.50 C652.58,759.95 650.58,756.24 648.53,752.25 L 644.81 745.00 L 622.00 745.00 L 622.00 770.50 C622.00,784.53 621.66,796.05 621.25,796.12 ZM 539.88 796.58 C529.63,800.29 514.86,801.14 499.50,798.92 C484.86,796.80 470.27,787.54 464.96,777.00 C462.12,771.36 460.03,763.64 460.01,758.75 L 460.00 755.00 L 485.96 755.00 L 486.56 757.75 C488.33,765.83 492.69,771.77 499.41,775.22 C504.49,777.84 517.00,778.77 524.54,777.08 C540.11,773.59 547.08,757.48 537.12,748.00 C532.69,743.79 527.92,742.20 494.72,733.92 C492.64,733.40 490.16,732.58 489.22,732.10 C488.27,731.62 484.49,729.80 480.80,728.05 C466.30,721.15 459.66,706.92 462.89,689.61 C467.23,666.27 485.04,654.56 516.00,654.68 C530.01,654.74 537.41,656.19 546.20,660.60 C557.43,666.25 563.90,674.84 566.07,687.00 C566.11,687.20 566.14,687.40 566.17,687.59 C566.94,691.88 567.37,694.23 566.38,695.50 C565.18,697.05 561.89,696.97 554.59,696.80 L 553.77 696.78 L 541.50 696.50 L 540.95 692.38 C539.93,684.77 535.99,680.88 526.81,678.44 C515.29,675.37 501.04,677.71 494.80,683.69 C489.42,688.85 489.06,696.90 493.96,702.77 C496.62,705.96 504.86,709.42 516.00,712.03 C548.33,719.61 559.79,725.22 566.66,736.81 C569.12,740.97 569.48,742.69 569.82,752.00 C570.39,767.54 567.62,775.21 557.62,785.81 C554.10,789.55 546.41,794.22 539.88,796.58 ZM 376.94 795.51 L 348.00 796.05 L 348.00 656.98 L 445.50 657.50 L 445.50 681.50 L 411.50 682.00 C392.80,682.28 377.61,682.84 377.75,683.25 C377.89,683.66 378.00,691.42 378.00,700.50 L 378.00 717.00 L 437.00 717.00 L 437.00 741.00 L 436.61 726.50 L 435.91 740.00 L 407.54 740.00 C391.93,740.00 378.45,740.27 377.58,740.61 C376.19,741.14 376.00,744.56 376.00,768.67 C376.00,786.16 376.32,795.34 376.94,795.51 ZM 551.32 609.58 C539.19,611.69 532.52,612.22 514.50,612.51 C486.75,612.96 479.57,612.33 455.00,607.33 C440.65,604.40 425.43,599.86 411.82,594.43 C397.26,588.63 380.00,580.26 380.00,579.00 C380.00,578.38 380.79,578.11 381.75,578.41 C384.94,579.40 410.79,582.11 425.25,582.96 C436.03,583.60 442.18,584.54 450.50,586.82 C456.55,588.47 465.97,590.59 471.43,591.52 C484.05,593.66 505.08,594.96 506.75,593.70 C507.52,593.12 508.00,590.31 508.00,586.38 L 508.00 580.00 L 518.00 580.00 L 518.00 594.00 L 525.75 594.01 C534.64,594.01 545.95,592.22 564.50,587.84 C585.91,582.80 607.07,574.10 626.00,562.57 C639.50,554.34 640.97,553.57 646.00,552.03 C653.50,549.74 685.03,537.21 692.49,533.57 C703.38,528.24 702.62,529.96 689.05,541.39 C671.45,556.20 649.23,572.02 634.41,580.30 C606.53,595.87 583.54,603.97 551.32,609.58 ZM 390.00 177.91 C393.58,178.38 398.52,178.71 401.00,178.64 L 405.50 178.50 L 411.50 167.50 C422.86,146.67 431.33,135.56 447.53,120.20 C453.29,114.75 458.00,109.98 458.00,109.62 C458.00,106.81 416.86,121.70 402.50,129.71 C400.30,130.93 397.15,132.69 395.50,133.62 C393.85,134.54 389.35,137.35 385.50,139.86 C369.27,150.44 344.94,172.13 348.25,173.07 C348.60,173.17 362.71,174.78 374.00,176.01 C379.23,176.58 386.42,177.43 390.00,177.91 ZM 617.62 172.25 C620.41,178.00 620.42,178.00 624.96,178.00 C627.46,178.00 633.10,177.56 637.50,177.02 C641.90,176.48 652.60,175.29 661.28,174.37 C669.96,173.45 677.35,172.24 677.70,171.68 C679.32,169.06 651.91,146.28 634.50,135.80 C614.64,123.84 584.36,111.52 570.00,109.56 L 565.50 108.95 L 568.87 111.72 C590.24,129.30 606.66,149.69 617.62,172.25 ZM 515.87 895.10 C513.18,897.26 503.47,898.47 498.09,897.33 C493.38,896.33 487.89,891.97 485.95,887.69 C481.61,878.15 484.54,869.69 494.25,863.66 C497.23,861.81 497.81,859.57 495.64,858.30 C491.43,855.83 489.67,845.47 492.52,839.96 C495.96,833.30 508.85,830.81 517.71,835.10 C522.91,837.62 525.00,841.22 525.00,847.67 C525.00,852.20 524.69,852.74 519.08,858.08 L 513.16 863.72 L 517.66 868.86 C520.14,871.70 522.55,873.78 523.02,873.49 C523.49,873.20 525.00,870.50 526.38,867.48 L 528.89 862.00 L 533.94 862.00 C536.73,862.00 539.00,862.23 539.00,862.52 C539.00,862.81 536.96,867.10 534.47,872.06 C531.98,877.03 530.26,881.63 530.65,882.29 C531.04,882.96 533.75,886.24 536.67,889.60 C539.59,892.95 541.68,895.99 541.32,896.35 C540.96,896.71 538.40,897.00 535.63,897.00 C531.17,897.00 530.15,896.57 526.85,893.35 C525.10,891.64 524.17,890.65 523.13,890.51 C521.80,890.33 520.28,891.55 516.65,894.48 C516.40,894.68 516.14,894.88 515.87,895.10 ZM 297.36 914.77 C287.77,917.65 277.89,914.88 273.25,908.03 C269.63,902.69 270.17,901.00 275.50,901.00 C277.98,901.00 280.00,901.47 280.00,902.05 C280.00,904.48 284.96,908.00 288.41,908.00 C295.14,908.00 299.45,904.38 301.02,897.41 C302.17,892.33 300.86,891.47 296.51,894.43 C287.36,900.64 274.10,894.94 270.14,883.10 C268.34,877.73 268.75,866.14 270.91,861.38 C273.81,855.01 281.85,850.00 289.19,850.00 C292.18,850.00 299.38,853.19 300.50,855.00 C301.44,856.52 303.00,855.19 303.00,852.88 C303.00,851.16 303.57,850.93 307.08,851.19 L 311.15 851.50 L 311.04 875.00 C310.97,889.97 310.50,899.94 309.74,902.47 C308.20,907.61 302.56,913.22 297.36,914.77 ZM 523.50 449.00 C523.16,448.45 521.90,448.01 520.69,448.02 C518.94,448.03 518.79,448.20 519.93,448.95 C513.97,447.42 510.92,447.77 505.88,449.53 C497.44,452.47 494.45,454.37 488.00,460.91 C482.80,466.18 480.85,469.10 478.23,475.50 C476.43,479.90 474.97,484.51 474.98,485.75 C475.00,487.73 475.52,488.00 479.25,488.01 C485.51,488.02 514.94,485.09 519.00,484.05 C520.92,483.56 528.30,482.11 535.38,480.84 C542.47,479.57 548.95,478.03 549.78,477.42 C551.09,476.46 550.84,475.48 547.96,470.08 C544.02,462.67 534.58,453.69 528.61,451.66 C526.60,450.97 524.83,450.39 523.25,449.90 C523.65,449.78 523.80,449.48 523.50,449.00 ZM 622.00 681.00 L 622.00 721.19 L 640.75 720.84 C661.93,720.46 664.70,719.69 670.45,712.59 C673.26,709.11 673.50,708.22 673.50,701.06 C673.50,692.23 672.40,689.50 667.49,686.14 C661.07,681.73 657.50,681.09 639.25,681.04 ZM 869.02 895.75 C864.58,898.00 858.70,898.50 852.74,897.13 C848.69,896.21 843.45,891.63 840.31,886.27 C836.33,879.47 836.42,869.92 840.56,861.52 C843.13,856.30 844.20,855.20 849.00,852.81 C855.23,849.73 859.42,849.39 866.18,851.44 C877.27,854.81 883.62,866.89 880.98,879.59 C879.55,886.47 874.88,892.79 869.02,895.75 ZM 775.00 879.66 L 774.50 896.50 L 766.24 897.10 L 765.50 875.14 C765.10,863.06 765.08,852.69 765.45,852.09 C767.03,849.52 774.00,851.23 774.00,854.20 C774.00,856.06 774.17,856.03 776.93,853.71 C782.59,848.95 792.73,849.45 797.63,854.73 L 800.03 857.32 L 802.26 855.28 C810.54,847.71 822.04,848.64 826.72,857.26 C828.21,860.01 828.48,863.22 828.49,878.50 L 828.50 896.50 L 823.89 896.80 L 819.28 897.10 L 818.79 879.40 C818.24,859.38 818.08,859.00 810.46,859.00 C803.19,859.00 802.58,860.50 802.00,879.85 L 801.50 896.50 L 796.86 896.80 L 792.23 897.10 L 791.84 879.45 C791.50,863.46 791.28,861.68 789.54,860.40 C786.78,858.39 780.65,858.65 777.86,860.91 C775.59,862.75 775.48,863.46 775.00,879.66 ZM 352.47 895.72 C346.99,898.82 338.08,898.84 331.97,895.75 C324.07,891.76 320.45,883.59 321.23,871.50 C321.81,862.57 324.62,856.91 330.27,853.30 C333.84,851.02 335.60,850.60 341.50,850.61 C346.08,850.61 349.58,851.19 351.63,852.27 C358.43,855.87 362.43,863.74 361.80,872.31 L 361.50 876.50 L 346.25 876.78 C335.76,876.97 331.91,877.00 331.16,878.54 C330.73,879.43 331.31,880.81 332.24,883.01 L 332.36 883.28 C334.28,887.81 337.19,890.08 341.89,890.71 C345.55,891.20 346.30,890.90 349.57,887.63 C352.50,884.70 353.95,884.00 357.10,884.00 C359.71,884.00 361.00,884.45 361.00,885.35 C361.00,887.92 356.43,893.48 352.47,895.72 ZM 245.45 894.91 C242.38,897.61 241.19,898.00 236.11,898.00 C226.09,898.00 219.40,891.31 220.33,882.21 C221.14,874.24 226.49,871.00 238.81,871.00 C245.07,871.00 247.00,870.64 248.20,869.25 C251.46,865.47 246.01,857.00 240.32,857.00 C236.83,857.00 232.34,859.59 231.72,861.96 C231.29,863.60 230.37,864.00 227.06,864.00 C224.34,864.00 222.74,863.50 222.37,862.52 C221.38,859.95 225.34,854.61 230.02,852.18 C233.76,850.24 235.60,849.93 241.17,850.29 C248.48,850.76 253.07,852.86 256.30,857.20 C258.13,859.65 258.32,861.51 258.40,878.20 L 258.50 896.50 L 254.75 896.81 C251.48,897.08 250.87,896.78 249.99,894.47 L 248.98 891.81 ZM 174.81 891.75 L 172.86 897.00 L 167.90 897.00 C163.42,897.00 162.85,896.74 161.89,894.25 C155.53,877.83 141.06,836.57 141.03,834.78 C141.01,833.33 141.75,833.13 145.75,833.48 C148.36,833.72 150.81,833.93 151.19,833.95 C151.57,833.98 154.43,841.99 157.54,851.75 C160.65,861.51 163.55,870.40 163.98,871.50 C164.42,872.60 165.35,875.43 166.06,877.79 C167.75,883.44 168.79,882.21 172.56,870.04 C174.18,864.84 177.52,854.49 180.00,847.04 L 184.50 833.50 L 189.75 833.20 C193.24,833.00 195.00,833.28 195.00,834.06 C195.00,834.70 192.56,842.03 189.59,850.36 C186.61,858.69 182.50,870.22 180.46,876.00 C178.42,881.78 175.88,888.86 174.81,891.75 ZM 642.21 895.50 C634.67,900.63 623.75,897.94 619.75,889.98 C618.28,887.06 618.00,883.65 618.00,868.75 L 618.00 851.00 L 628.00 851.00 L 628.00 868.05 C628.00,885.03 628.01,885.10 630.58,887.67 C634.23,891.32 640.35,890.51 644.25,885.86 C647.00,882.58 647.00,882.55 647.00,866.79 L 647.00 851.00 L 657.00 851.00 L 657.00 872.42 C657.00,884.20 656.73,894.55 656.39,895.42 C655.98,896.49 654.52,897.00 651.89,897.00 C648.67,897.00 648.00,896.66 648.00,895.00 C648.00,892.36 646.66,892.48 642.21,895.50 ZM 381.08 885.75 L 381.00 897.00 L 372.00 897.00 L 372.00 851.00 L 376.00 851.00 C379.33,851.00 380.00,851.33 380.00,853.00 C380.00,854.64 380.07,855.21 381.32,854.59 C380.32,855.45 379.86,856.20 380.29,856.62 C380.64,856.98 382.54,855.86 384.50,854.13 C387.73,851.30 388.70,851.00 394.65,851.00 C400.97,851.00 401.39,851.16 405.12,854.88 C408.02,857.79 409.02,859.61 409.08,862.13 C409.11,863.57 409.28,864.46 409.49,864.44 C409.66,867.62 409.72,871.72 409.81,877.10 L 410.12 897.00 L 401.13 897.00 L 400.82 880.10 C400.44,860.15 399.96,859.00 391.96,859.00 C382.72,859.00 381.26,862.59 381.08,885.75 ZM 448.02 896.15 C444.28,898.13 434.91,898.55 429.62,896.97 C426.19,895.94 422.35,892.53 420.40,888.80 C417.94,884.06 418.50,883.00 423.50,883.00 C426.71,883.00 428.00,883.41 428.00,884.41 C428.00,886.75 433.89,891.00 437.13,891.00 C441.47,891.00 445.87,888.37 446.63,885.33 C447.43,882.16 445.53,880.45 439.53,878.94 C427.04,875.80 421.65,872.00 420.42,865.45 C418.82,856.90 425.91,850.52 437.03,850.51 C445.26,850.50 451.13,852.98 453.56,857.48 C455.92,861.87 454.96,864.00 450.60,864.00 C447.89,864.00 446.67,863.34 445.00,861.00 C443.17,858.43 442.22,858.00 438.37,858.00 C432.65,858.00 430.00,859.42 430.00,862.46 C430.00,866.00 432.12,867.55 439.70,869.54 C453.00,873.04 456.00,875.69 456.00,883.92 C456.00,888.62 452.72,893.65 448.02,896.15 ZM 499.68 421.60 C500.10,422.69 502.94,422.84 514.35,422.35 C522.13,422.02 528.83,421.45 529.23,421.10 C530.03,420.38 529.20,415.01 526.21,401.50 C525.12,396.55 523.90,390.14 523.52,387.25 L 522.81 382.00 L 514.41 382.00 C509.78,382.00 505.99,382.34 505.97,382.75 C505.89,384.80 501.01,413.01 500.15,416.37 C499.60,418.50 499.39,420.85 499.68,421.60 ZM 748.70 895.39 C744.62,898.41 733.06,898.79 727.27,896.09 C722.79,894.00 719.01,889.04 719.00,885.25 C719.00,883.27 719.50,883.00 723.25,883.02 C727.05,883.04 727.66,883.38 729.00,886.27 C731.12,890.83 736.70,892.21 741.85,889.45 C745.75,887.36 747.06,883.98 744.95,881.43 C744.28,880.63 741.21,879.28 738.12,878.43 C724.62,874.72 720.00,870.91 720.00,863.50 C720.00,850.18 740.51,845.35 751.81,856.01 C753.34,857.45 754.01,859.08 753.81,860.84 C753.54,863.12 752.97,863.54 749.81,863.81 C746.59,864.07 745.91,863.74 744.59,861.18 C742.93,857.95 741.22,857.00 737.14,857.00 C733.15,857.00 730.00,859.62 730.00,862.93 C730.00,866.72 731.15,867.48 740.44,869.86 C744.81,870.98 749.53,872.75 750.94,873.79 C758.32,879.27 757.31,889.01 748.70,895.39 ZM 586.00 869.25 L 585.50 841.50 L 576.26 841.21 C567.38,840.94 567.00,840.83 566.40,838.46 L 566.38 838.37 C566.00,836.87 565.73,835.79 566.10,835.01 C567.05,833.00 572.27,833.00 591.01,833.00 L 616.00 833.00 L 616.00 841.00 L 606.62 841.00 C600.10,841.00 596.91,841.40 596.16,842.31 C594.96,843.75 594.00,896.78 595.16,897.00 L 585.76 897.00 C586.16,896.88 586.27,884.44 586.00,869.25 ZM 436.39 337.10 C440.56,339.64 447.35,339.57 451.61,336.93 C457.19,333.48 459.17,329.79 459.35,322.48 C459.50,316.17 459.41,315.96 455.30,311.84 C451.51,308.04 450.55,307.60 445.30,307.23 C440.44,306.89 438.94,307.21 436.02,309.19 C434.11,310.48 431.48,313.11 430.18,315.02 C425.65,321.70 428.65,332.38 436.39,337.10 ZM 351.00 467.74 L 351.00 482.18 L 359.75 481.47 C364.56,481.08 368.84,480.56 369.25,480.32 C369.66,480.08 370.00,474.04 370.00,466.90 C370.00,455.99 369.69,453.31 368.04,450.08 C365.92,445.92 364.44,445.00 359.85,445.00 C352.35,445.00 351.00,448.47 351.00,467.74 ZM 855.27 889.49 C860.53,891.74 865.65,889.92 868.91,884.64 C870.56,881.97 871.00,879.63 871.00,873.48 L 871.00 865.69 L 866.96 861.85 C862.14,857.26 858.07,856.81 852.90,860.29 C850.29,862.04 849.21,863.72 848.26,867.54 C845.86,877.10 848.96,886.80 855.27,889.49 ZM 283.26 885.60 C288.38,890.29 292.91,890.29 297.60,885.60 C300.96,882.24 301.00,882.10 301.00,873.19 C301.00,864.35 300.94,864.13 297.92,861.59 C295.61,859.65 293.73,859.00 290.36,859.00 C281.51,859.00 278.59,863.12 279.17,874.75 C279.53,881.87 279.71,882.35 283.26,885.60 ZM 321.00 410.86 L 321.00 424.60 L 329.11 422.98 C334.71,421.86 337.53,420.80 338.23,419.55 C338.82,418.49 339.06,413.08 338.81,406.49 C338.24,391.49 336.14,388.00 328.57,389.42 C326.08,389.89 324.60,391.01 323.08,393.59 C321.25,396.70 321.00,398.73 321.00,410.86 ZM 320.00 470.34 L 320.00 484.23 L 327.75 483.51 C332.01,483.12 335.81,482.61 336.18,482.38 C336.55,482.15 336.83,476.14 336.79,469.03 C336.74,458.27 336.41,455.57 334.88,453.04 C333.34,450.51 332.39,450.00 329.26,450.02 C324.98,450.03 324.06,450.52 321.69,453.97 C320.30,456.00 320.00,458.93 320.00,470.34 ZM 462.00 962.58 C460.08,962.62 457.27,963.00 455.76,963.43 C453.44,964.09 452.49,963.69 449.66,960.86 C445.48,956.68 444.13,950.02 446.37,944.66 C448.19,940.29 450.95,938.77 456.32,939.16 L 460.50 939.47 L 460.80 934.23 C461.08,929.42 461.30,929.00 463.58,929.00 L 466.05 929.00 L 465.77 945.75 L 465.50 962.50 ZM 725.77 955.86 C725.54,969.92 725.26,972.52 723.95,972.77 C721.57,973.23 721.00,972.08 721.00,966.83 L 721.00 966.48 C721.00,963.79 721.00,962.58 720.47,962.27 C720.04,962.02 719.26,962.38 717.82,963.04 L 717.59 963.14 C715.68,964.01 714.36,963.98 712.00,963.00 C707.44,961.11 705.70,956.98 706.20,949.21 C706.76,940.42 708.45,939.05 718.59,939.17 L 726.05 939.25 ZM 669.00 850.87 L 672.25 851.19 C674.96,851.45 675.55,851.96 675.82,854.25 C676.22,857.76 677.14,857.71 680.85,854.00 C683.06,851.78 684.78,851.00 687.42,851.00 C690.83,851.00 691.00,851.17 691.00,854.41 C691.00,857.63 690.76,857.86 686.90,858.52 C682.39,859.28 678.88,862.50 677.87,866.81 C677.52,868.29 677.18,875.69 677.12,883.25 L 677.00 897.00 L 669.00 897.00 ZM 708.79 897.15 C707.45,898.00 706.07,898.03 702.25,897.29 L 700.00 896.86 L 700.00 851.00 L 709.74 851.00 L 709.91 873.67 C710.04,891.23 709.79,896.52 708.79,897.15 ZM 487.90 961.43 C478.34,969.48 466.35,955.89 472.51,943.98 C474.46,940.21 476.83,939.00 482.25,939.00 C485.73,939.00 487.15,939.56 489.21,941.75 C494.27,947.14 493.64,956.60 487.90,961.43 ZM 550.25 959.83 C545.36,965.61 536.97,964.71 533.51,958.02 C530.50,952.20 532.35,942.49 536.94,940.03 C538.00,939.46 540.88,939.00 543.35,939.00 C547.12,939.00 548.23,939.48 550.41,942.08 C552.53,944.60 553.00,946.18 553.00,950.86 C553.00,955.64 552.55,957.11 550.25,959.83 ZM 211.04 851.00 L 210.50 897.50 L 207.50 897.69 C207.37,897.70 207.24,897.71 207.11,897.72 C205.70,897.82 204.68,897.88 203.93,897.46 C202.00,896.35 202.00,891.86 202.00,875.61 L 202.00 873.92 L 202.00 851.00 ZM 293.42 485.65 C293.88,486.85 294.91,487.02 298.25,486.46 C302.25,485.79 304.43,485.53 305.61,484.32 C307.01,482.86 307.01,480.05 307.00,473.55 C307.00,473.05 307.00,472.53 307.00,471.99 C307.00,457.87 305.91,455.00 300.54,455.00 C294.64,455.00 293.55,457.48 293.17,471.66 C292.98,478.52 293.10,484.81 293.42,485.65 ZM 563.00 953.48 C563.00,962.04 562.82,963.00 561.17,963.00 C560.16,963.00 559.03,962.70 558.67,962.33 C557.83,961.50 557.81,951.19 558.63,944.40 L 559.24 939.30 L 566.29 939.17 C570.25,939.09 573.93,939.53 574.70,940.17 C575.71,941.00 576.71,941.00 578.58,940.15 C579.96,939.52 582.85,939.00 584.99,939.00 C590.87,939.00 592.00,941.30 592.00,953.22 C592.00,962.27 591.85,963.00 590.04,963.00 C588.24,963.00 588.05,962.18 587.79,953.25 L 587.50 943.50 L 578.50 943.50 L 578.21 953.25 C577.93,962.87 577.89,963.00 575.46,963.00 C573.02,963.00 573.00,962.93 573.00,953.48 C573.00,944.54 572.86,943.89 570.72,942.92 C569.15,942.20 567.60,942.20 565.72,942.92 C563.02,943.94 563.00,944.03 563.00,953.48 ZM 359.39 961.42 C359.06,962.29 357.93,963.00 356.89,963.00 C355.14,963.00 355.00,962.11 355.00,951.12 L 355.00 939.23 L 363.75 939.56 C368.56,939.74 373.17,939.92 374.00,939.95 C374.83,939.99 377.42,939.74 379.76,939.40 C382.86,938.96 384.72,939.24 386.55,940.44 C389.01,942.05 389.06,942.35 388.78,952.30 C388.52,961.74 388.35,962.50 386.50,962.50 C384.68,962.50 384.46,961.67 384.00,953.00 L 383.50 943.50 L 380.12 943.18 C378.27,943.00 376.34,943.26 375.84,943.76 C375.09,944.51 374.39,951.41 374.06,961.25 C374.02,962.31 373.22,963.00 372.00,963.00 C370.14,963.00 370.00,962.33 370.00,953.48 C370.00,944.29 369.91,943.92 367.50,942.82 C365.63,941.97 364.37,941.97 362.50,942.82 C360.14,943.89 360.00,944.40 360.00,951.90 C360.00,956.26 359.73,960.55 359.39,961.42 ZM 294.67 429.33 C295.50,430.17 295.56,430.16 301.00,428.70 C303.93,427.91 305.63,427.49 306.62,426.42 C308.00,424.92 308.00,422.15 308.00,415.36 L 308.00 414.66 C308.00,401.47 306.86,398.69 301.69,399.19 C299.44,399.41 297.93,400.45 296.28,402.90 C294.24,405.93 294.00,407.49 294.00,417.48 C294.00,423.63 294.30,428.97 294.67,429.33 ZM 402.09 478.39 C403.90,480.69 404.87,481.06 408.36,480.80 L 412.50 480.50 L 412.78 468.84 C413.04,457.90 412.92,457.03 410.78,454.67 C407.57,451.14 404.76,450.57 401.90,452.88 C399.82,454.56 399.48,455.82 399.16,462.91 C398.73,472.33 399.17,474.68 402.09,478.39 ZM 515.97 323.91 C515.39,318.18 514.67,312.65 514.35,311.62 C513.23,307.93 512.03,312.30 512.17,319.50 C512.26,323.90 512.31,325.45 512.49,324.64 C512.06,328.51 511.29,335.00 510.61,340.50 C509.79,347.10 508.80,355.09 508.42,358.25 L 507.72 364.00 L 513.39 364.00 C517.64,364.00 519.22,363.60 519.67,362.42 C520.40,360.50 518.33,342.45 516.53,334.70 C516.57,334.73 516.61,334.73 516.64,334.69 C516.84,334.49 516.54,329.64 515.97,323.91 ZM 281.39 963.04 C276.62,964.86 271.38,963.65 267.25,959.77 C264.73,957.40 264.24,954.00 266.42,954.00 C267.21,954.00 269.20,955.35 270.85,957.00 C275.70,961.86 283.00,960.23 283.00,954.29 C283.00,951.76 281.81,950.83 275.68,948.56 C268.43,945.88 265.57,943.02 265.70,938.56 C265.83,934.06 268.12,931.34 273.03,929.87 C279.40,927.96 288.75,932.88 287.83,937.65 C287.26,940.60 284.64,940.27 282.80,937.01 C281.30,934.37 280.55,934.00 276.67,934.00 C271.59,934.00 269.48,935.80 270.38,939.37 C270.82,941.12 272.49,942.37 276.61,944.04 C279.70,945.30 283.53,947.42 285.12,948.75 C290.30,953.11 288.40,960.37 281.39,963.04 ZM 660.75 962.83 C658.41,962.78 655.36,963.06 653.98,963.45 C649.96,964.56 646.00,960.86 646.00,955.98 C646.00,951.42 648.65,949.00 653.64,949.00 C658.02,949.00 660.00,948.10 660.00,946.09 C660.00,941.80 654.13,940.59 650.39,944.10 C646.63,947.64 644.34,944.66 648.00,941.00 C650.36,938.64 658.55,938.22 661.41,940.31 C663.54,941.87 664.90,948.15 664.96,956.70 L 665.00 962.91 ZM 692.50 963.00 C690.44,966.33 681.00,960.74 681.00,956.19 C681.00,952.50 684.39,949.66 689.51,949.06 C695.29,948.38 697.66,945.75 694.56,943.44 C691.84,941.42 688.63,941.65 686.50,944.00 C684.20,946.54 682.00,946.57 682.00,944.06 C682.00,941.11 685.85,939.00 691.22,939.00 C698.46,939.00 700.00,941.05 700.01,950.75 C700.02,955.01 700.32,959.58 700.67,960.90 C701.29,963.22 701.17,963.28 697.22,962.65 C694.82,962.27 692.86,962.41 692.50,963.00 ZM 501.31 888.90 C503.07,889.40 504.85,889.86 505.28,889.91 C507.08,890.12 512.67,887.07 514.87,884.69 L 517.24 882.12 L 510.91 875.06 C504.05,867.39 501.71,866.50 498.30,870.25 C491.67,877.53 493.12,886.53 501.31,888.90 ZM 310.12 961.39 C307.14,964.09 301.99,964.40 298.31,962.10 C294.03,959.42 293.00,957.17 293.00,950.49 C293.00,945.59 293.38,944.46 295.92,941.92 C298.29,939.56 299.71,939.00 303.33,939.00 C307.12,939.00 308.23,939.48 310.41,942.08 C312.05,944.03 313.00,946.36 313.00,948.46 C313.00,952.34 311.59,952.97 302.75,952.99 C296.37,953.00 295.76,953.85 299.45,957.55 C301.94,960.03 306.37,960.83 307.50,959.00 C308.25,957.79 312.00,957.66 312.00,958.85 C312.00,959.31 311.16,960.45 310.12,961.39 ZM 614.37 961.93 C610.94,964.62 607.12,964.55 602.90,961.71 C593.43,955.34 597.00,939.00 607.87,939.00 C613.39,939.00 616.94,942.17 617.69,947.75 L 618.26 952.00 L 610.13 952.00 C602.95,952.00 602.00,952.21 602.00,953.81 C602.00,958.12 610.46,962.30 612.50,959.00 C613.28,957.74 617.00,957.68 617.00,958.93 C617.00,959.44 615.81,960.79 614.37,961.93 ZM 271.00 478.01 L 271.00 489.12 L 275.75 488.44 C278.36,488.06 281.06,487.30 281.75,486.75 C283.45,485.40 283.42,467.39 281.71,464.00 C280.84,462.27 279.48,461.41 277.28,461.19 C272.35,460.71 271.00,464.34 271.00,478.01 ZM 423.71 480.38 C424.10,480.77 426.69,480.96 429.46,480.79 L 434.50 480.50 L 434.79 470.77 C435.10,460.07 433.73,455.58 429.70,454.08 C426.63,452.94 425.31,453.68 424.07,457.23 C422.88,460.64 422.59,479.26 423.71,480.38 ZM 272.39 434.58 C272.89,435.88 273.79,436.08 276.76,435.52 C283.35,434.30 284.00,433.03 284.00,421.35 C284.00,412.33 283.74,410.74 282.00,409.00 C279.39,406.39 278.39,406.48 275.55,409.55 C273.51,411.74 273.09,413.51 272.48,422.52 C272.08,428.25 272.05,433.68 272.39,434.58 ZM 411.00 962.69 C409.08,962.79 406.11,963.17 404.41,963.53 C401.97,964.04 400.71,963.65 398.41,961.68 C395.61,959.27 395.49,958.80 395.16,949.09 L 394.81 939.00 L 397.37 939.00 C399.92,939.00 399.93,939.03 400.21,948.73 C400.50,958.31 400.54,958.47 403.22,959.41 C405.37,960.17 406.36,959.98 407.97,958.53 C409.72,956.94 410.00,955.46 410.00,947.78 C410.00,939.10 410.06,938.87 412.25,939.18 C414.43,939.49 414.50,939.84 414.50,951.00 L 414.50 962.50 ZM 634.94 970.35 C633.79,971.81 631.99,973.00 630.93,973.00 C628.54,973.00 628.50,972.21 630.74,969.74 C632.39,967.92 632.39,967.76 630.74,966.55 C629.78,965.85 629.00,964.77 629.00,964.14 C629.00,963.51 628.35,963.00 627.56,963.00 C625.62,963.00 623.19,959.38 621.89,954.58 C620.57,949.70 622.32,942.59 625.36,940.46 C628.74,938.09 636.25,938.57 638.83,941.31 C640.02,942.59 641.00,944.14 641.00,944.76 C641.00,946.98 638.69,947.25 637.11,945.20 C634.98,942.45 630.99,941.55 628.62,943.29 C625.94,945.25 625.18,954.09 627.40,957.48 C629.48,960.66 634.39,960.95 636.23,958.00 C637.63,955.76 641.00,955.28 641.00,957.33 C641.00,958.93 636.83,963.00 635.19,963.00 C633.58,963.00 633.69,964.00 635.52,966.02 C636.88,967.52 636.82,967.96 634.94,970.35 ZM 243.03 889.48 C246.69,887.59 249.21,882.87 248.81,878.69 L 248.50 875.50 L 242.00 875.81 C233.36,876.22 229.60,878.38 229.20,883.18 C228.65,889.65 236.12,893.06 243.03,889.48 ZM 425.00 954.02 C425.00,962.33 424.85,963.00 423.00,963.00 C421.11,963.00 421.00,962.33 421.00,951.15 L 421.00 939.30 L 428.25 939.18 C432.24,939.10 436.00,939.37 436.60,939.77 C439.06,941.40 440.00,945.33 440.00,954.00 C440.00,962.91 439.94,963.13 437.75,962.82 C435.63,962.52 435.48,961.98 435.21,953.21 C434.94,944.49 434.78,943.86 432.50,942.82 C430.58,941.94 429.56,942.06 427.54,943.38 C425.13,944.96 425.00,945.51 425.00,954.02 ZM 747.25 962.87 C745.19,962.82 742.28,963.11 740.78,963.50 C738.56,964.09 737.51,963.67 735.03,961.19 C732.08,958.23 732.00,957.91 732.00,948.58 C732.00,939.67 732.14,939.00 734.00,939.00 C735.84,939.00 736.00,939.67 736.00,947.28 C736.00,958.83 738.92,962.55 744.78,958.44 C746.79,957.03 747.00,956.05 747.00,947.94 C747.00,939.67 747.15,939.00 749.00,939.00 C750.89,939.00 751.00,939.67 751.00,950.98 L 751.00 962.95 ZM 333.00 962.69 C331.08,962.79 328.06,963.17 326.31,963.54 C323.70,964.09 322.65,963.74 320.56,961.65 C318.15,959.24 318.00,958.49 318.00,949.05 C318.00,939.67 318.13,939.00 320.00,939.00 C321.84,939.00 322.00,939.67 322.00,947.57 C322.00,952.28 322.47,957.00 323.04,958.07 C324.28,960.40 327.74,960.57 330.78,958.44 C332.79,957.03 333.00,956.05 333.00,947.94 C333.00,939.62 333.14,939.00 335.03,939.00 C336.97,939.00 337.05,939.51 336.78,950.75 L 336.50 962.50 ZM 523.02 962.49 C519.07,964.53 516.77,964.39 513.61,961.91 C507.99,957.48 506.33,949.26 509.89,943.42 C512.08,939.82 516.92,937.51 520.43,938.39 C524.22,939.34 528.45,943.39 527.70,945.34 C526.91,947.39 524.00,947.54 524.00,945.54 C524.00,944.73 523.13,943.60 522.07,943.04 C516.80,940.22 513.00,943.55 513.00,951.00 C513.00,959.02 517.07,962.09 522.27,958.00 C524.65,956.13 528.00,955.29 528.00,956.57 C528.00,958.28 525.57,961.17 523.02,962.49 ZM 331.00 868.62 C331.00,869.70 333.24,870.00 341.44,870.00 C347.18,870.00 352.14,869.59 352.45,869.08 C353.26,867.77 351.22,862.88 348.76,860.25 C346.37,857.70 340.81,857.22 336.48,859.19 C334.03,860.31 331.00,865.53 331.00,868.62 ZM 436.43 259.67 C436.84,260.75 438.68,261.02 444.24,260.79 L 451.50 260.50 L 451.80 254.21 L 452.10 247.91 L 444.30 248.21 L 436.50 248.50 L 436.19 253.37 C436.02,256.05 436.13,258.89 436.43,259.67 ZM 253.59 490.15 C254.28,491.27 256.28,491.23 259.43,490.02 C261.96,489.06 262.00,488.90 262.00,478.58 C262.00,468.86 261.84,468.00 259.75,466.53 C255.95,463.84 254.42,467.00 253.69,479.07 C253.35,484.69 253.30,489.68 253.59,490.15 ZM 458.89 297.63 C459.52,296.87 459.76,295.54 459.43,294.68 C458.71,292.79 454.01,292.37 438.69,292.81 C427.57,293.14 425.94,293.81 427.36,297.50 C428.17,299.61 457.15,299.73 458.89,297.63 ZM 254.88 442.25 C255.07,443.44 256.26,443.14 259.75,441.01 L 263.00 439.03 L 263.00 429.17 C263.00,420.57 262.74,419.08 260.99,417.49 C259.89,416.50 258.85,415.86 258.69,416.09 C255.72,420.21 255.19,422.40 254.99,431.56 C254.86,437.03 254.82,441.84 254.88,442.25 ZM 478.02 958.22 C481.09,960.70 483.51,960.44 485.93,957.37 C488.71,953.83 488.73,947.16 485.96,944.19 C483.45,941.49 480.95,941.41 477.86,943.91 C475.87,945.53 475.52,946.66 475.66,951.13 C475.78,955.27 476.30,956.83 478.02,958.22 ZM 538.61 958.12 C542.95,962.92 549.32,957.94 548.80,950.16 C548.25,941.98 540.89,939.44 537.38,946.23 C535.51,949.85 536.08,955.32 538.61,958.12 ZM 503.72 853.75 C505.20,855.54 506.90,857.00 507.51,857.00 C508.11,857.00 510.27,855.48 512.30,853.62 C514.99,851.16 516.00,849.41 516.00,847.24 C516.00,843.62 514.35,842.09 509.61,841.32 C501.58,840.02 498.23,847.10 503.72,853.75 ZM 712.07 957.37 C714.46,960.40 716.58,960.69 719.17,958.35 C721.89,955.88 721.81,944.50 719.07,943.04 C716.20,941.50 714.23,941.77 712.00,944.00 C709.24,946.76 709.28,953.82 712.07,957.37 ZM 452.00 958.00 C454.51,960.51 457.19,960.55 459.40,958.12 C460.71,956.66 461.03,954.77 460.80,949.87 L 460.50 943.50 L 456.54 943.18 C451.54,942.77 450.00,944.66 450.00,951.19 C450.00,954.67 450.55,956.55 452.00,958.00 ZM 242.01 441.25 C242.00,445.51 242.38,449.00 242.85,449.00 C243.31,449.00 244.55,448.05 245.59,446.90 C247.04,445.30 247.58,442.90 247.85,436.88 C248.20,429.34 247.30,426.00 244.92,426.00 C243.42,426.00 242.01,433.37 242.01,441.25 ZM 710.50 833.50 L 710.50 842.50 L 700.00 843.10 L 700.00 832.90 ZM 212.11 833.00 L 211.50 842.50 L 202.22 843.10 L 201.77 838.80 C201.52,836.44 201.49,834.16 201.71,833.75 C201.94,833.34 204.37,833.00 207.11,833.00 ZM 587.27 259.75 C590.86,263.64 593.24,261.85 589.99,257.71 C588.54,255.87 588.00,253.66 588.00,249.59 L 588.00 244.00 L 579.13 244.00 L 582.16 250.75 C583.83,254.46 586.13,258.51 587.27,259.75 ZM 762.00 951.00 C762.00,962.33 761.89,963.00 760.00,963.00 C758.11,963.00 758.00,962.33 758.00,951.00 C758.00,939.67 758.11,939.00 760.00,939.00 C761.89,939.00 762.00,939.67 762.00,951.00 ZM 242.60 492.26 C242.93,492.59 243.83,492.62 244.60,492.32 C245.65,491.92 246.00,489.61 246.00,482.95 C246.00,474.34 244.85,471.05 242.90,474.12 C241.93,475.66 241.66,491.33 242.60,492.26 ZM 651.20 958.80 C653.95,961.55 660.00,958.56 660.00,954.44 C660.00,952.28 659.56,952.00 656.20,952.00 C650.72,952.00 648.04,955.64 651.20,958.80 ZM 687.20 958.80 C689.95,961.55 696.00,958.56 696.00,954.44 C696.00,952.28 695.56,952.00 692.20,952.00 C686.72,952.00 684.04,955.64 687.20,958.80 ZM 449.38 322.70 C447.04,325.86 442.32,327.00 441.42,324.64 C441.10,323.82 440.99,322.10 441.17,320.82 C441.43,318.96 442.19,318.45 445.00,318.24 C446.92,318.10 449.17,318.41 449.98,318.94 C451.26,319.77 451.17,320.29 449.38,322.70 ZM 298.00 946.48 C298.00,948.79 298.36,949.00 302.38,949.00 C308.06,949.00 309.98,946.98 307.07,944.07 C304.72,941.72 304.13,941.62 300.57,942.98 C298.75,943.67 298.00,944.69 298.00,946.48 ZM 602.54 948.07 C602.89,948.64 605.28,948.97 607.84,948.80 C611.71,948.55 612.50,948.17 612.50,946.53 C612.50,944.21 608.66,942.01 605.88,942.74 C603.63,943.33 601.61,946.56 602.54,948.07 ZM 295.00 367.57 C295.00,373.29 295.23,374.10 296.75,373.81 C298.15,373.55 298.56,372.25 298.80,367.24 C299.07,361.52 298.92,361.00 297.05,361.00 C295.19,361.00 295.00,361.62 295.00,367.57 ZM 277.00 375.00 C277.00,378.30 277.43,381.00 277.96,381.00 C279.60,381.00 281.00,377.33 281.00,373.07 C281.00,369.67 280.67,369.00 279.00,369.00 C277.22,369.00 277.00,369.67 277.00,375.00 ZM 648.85 371.50 L 648.74 367.50 L 648.04 371.00 L 647.35 374.50 L 646.83 371.00 C646.36,367.74 646.31,367.82 646.16,372.08 C646.11,373.38 646.15,374.63 646.25,375.60 C646.09,374.37 646.00,372.65 646.00,370.42 C646.00,363.26 646.63,361.00 648.61,361.00 C649.74,361.00 649.89,362.40 649.37,368.25 C649.22,369.94 649.05,371.42 648.85,372.69 C648.86,372.30 648.86,371.91 648.85,371.50 ZM 251.00 395.00 C251.00,390.33 250.67,389.00 249.50,389.00 C248.33,389.00 248.00,390.33 248.00,395.00 C248.00,399.67 248.33,401.00 249.50,401.00 C250.67,401.00 251.00,399.67 251.00,395.00 ZM 774.56 960.10 C774.93,960.70 774.57,961.86 773.76,962.67 C772.46,963.97 772.09,963.95 770.63,962.49 C769.73,961.58 769.24,960.43 769.55,959.92 C770.34,958.65 773.74,958.77 774.56,960.10 ZM 761.81 931.74 C761.31,934.35 758.00,934.64 758.00,932.07 C758.00,930.64 758.64,930.00 760.07,930.00 C761.50,930.00 762.04,930.54 761.81,931.74 ZM 339.09 337.69 C337.79,336.39 337.61,337.84 338.72,340.67 C339.42,342.43 339.45,342.43 339.81,340.64 C340.02,339.62 339.70,338.30 339.09,337.69 ZM 585.74 897.00 L 585.00 897.00 L 585.00 870.04 C585.00,884.79 585.33,896.88 585.74,897.00 ZM 519.00 211.97 L 518.82 192.07 L 530.66 191.78 L 542.50 191.50 L 519.00 192.06 ZM 403.35 851.77 C405.85,852.98 407.33,854.04 408.23,856.29 C407.10,854.53 405.37,852.97 403.35,851.77 ZM 596.53 890.53 L 595.84 897.00 L 595.19 897.00 C596.23,896.92 596.87,888.89 596.95,876.21 C596.92,882.77 596.77,888.30 596.53,890.53 ZM 596.58 158.15 C596.51,158.06 596.45,157.98 596.39,157.92 C595.63,157.05 595.00,155.88 595.00,155.33 C595.00,154.56 591.98,150.60 587.81,145.69 C591.93,150.51 595.00,154.45 595.00,155.10 C595.00,155.41 595.64,156.63 596.58,158.15 ZM 744.00 341.10 L 744.00 336.00 L 744.31 336.00 ZM 385.45 851.95 C387.62,850.65 389.90,849.82 392.20,849.49 C390.10,849.89 387.62,850.85 385.45,851.95 ZM 377.53 791.99 L 377.50 795.50 L 376.98 795.51 C376.99,795.51 376.99,795.50 377.00,795.50 C377.21,795.37 377.39,794.16 377.53,791.99 ZM 596.90 227.14 C596.15,227.93 594.80,227.11 590.98,223.67 C594.09,226.47 595.90,227.64 596.90,227.14 ZM 498.25 356.67 C498.22,357.12 498.18,357.79 498.15,358.69 C498.09,360.45 498.01,361.47 497.68,362.09 C497.95,361.57 498.00,360.77 498.00,359.50 C498.00,358.68 498.10,357.67 498.25,356.67 ZM 513.49 318.65 C514.18,316.92 515.00,319.00 515.01,323.83 C515.01,324.64 515.05,325.55 515.12,326.49 C515.04,325.57 514.99,324.73 514.98,324.04 C514.97,319.05 514.19,317.09 513.49,318.65 ZM 646.57 377.17 C646.60,377.25 646.64,377.31 646.68,377.35 C647.02,377.69 647.35,377.70 647.65,377.44 C647.25,378.18 646.87,378.11 646.57,377.17 ZM 616.04 236.58 C616.93,235.88 618.73,235.05 621.47,234.09 C619.10,234.92 617.08,235.87 616.04,236.58 ZM 599.30 214.63 C599.96,212.06 600.71,210.00 601.17,210.00 C600.74,210.00 599.97,212.13 599.30,214.63 ZM 378.03 741.00 L 378.00 744.29 L 378.00 741.00 ZM 616.97 219.75 C617.01,218.74 616.22,218.68 614.91,219.42 C616.21,218.69 617.00,218.71 617.00,219.65 C617.00,219.67 616.99,219.72 616.97,219.78 C616.97,219.77 616.97,219.76 616.97,219.75 ZM 443.86 185.02 C443.65,185.03 443.42,185.17 443.19,185.47 C443.38,185.13 443.58,185.00 443.82,185.00 C443.83,185.00 443.85,185.01 443.86,185.02 ZM 497.32 362.55 C496.84,362.94 496.06,363.06 494.75,363.19 C496.06,363.06 496.85,362.93 497.32,362.55 Z" fill="rgb(11,46,62)"/>
<path d="M 241.45 523.17 C240.93,522.71 236.90,519.93 232.50,516.98 C224.88,511.87 220.00,508.00 221.16,508.00 C221.46,508.00 226.56,510.03 232.50,512.52 C238.43,515.01 243.47,516.87 243.68,516.65 C243.81,516.52 243.01,516.05 241.67,515.42 C277.65,529.92 319.30,537.54 379.00,541.03 C404.43,542.51 445.56,540.41 477.50,535.98 C481.35,535.44 488.10,534.54 492.50,533.97 C503.89,532.48 521.00,529.13 549.50,522.79 C567.14,518.87 599.89,508.74 622.50,500.21 C656.63,487.33 703.10,463.83 726.44,447.65 C759.79,424.54 780.66,404.58 792.59,384.41 C803.55,365.86 807.72,345.11 803.56,329.80 C800.90,320.01 800.18,318.10 796.50,311.29 C792.20,303.30 789.34,299.38 782.63,292.24 C779.91,289.35 777.95,286.71 778.27,286.39 C779.12,285.55 787.16,291.23 797.14,299.72 C810.63,311.19 823.87,329.79 829.07,344.57 C831.61,351.79 833.99,365.55 834.00,373.00 C834.00,381.16 830.61,397.42 827.03,406.43 C819.19,426.16 802.55,447.99 781.75,465.84 C736.82,504.42 682.03,532.21 613.00,551.44 C604.47,553.82 594.12,556.52 590.00,557.44 C585.88,558.36 578.90,559.96 574.50,560.99 C552.30,566.21 513.07,571.25 481.00,572.99 C457.66,574.26 429.98,574.06 410.00,572.48 C376.32,569.81 347.88,564.83 318.00,556.36 C309.48,553.95 301.72,551.53 300.76,550.99 C299.81,550.44 298.53,550.00 297.91,550.00 C297.30,550.00 295.38,549.35 293.65,548.55 C291.92,547.75 287.12,545.77 282.99,544.15 C274.10,540.67 256.36,532.19 250.00,528.39 C248.10,527.26 245.02,525.53 242.32,524.07 C242.27,523.94 242.00,523.65 241.45,523.17 ZM 219.46 505.27 C216.48,503.88 214.01,502.87 212.85,502.57 C213.91,502.74 216.16,503.64 219.46,505.27 ZM 214.16 504.96 C215.51,505.98 217.51,507.52 219.57,509.11 C219.98,509.43 220.42,509.77 220.87,510.11 C218.51,508.37 216.31,506.70 214.50,505.24 C214.38,505.14 214.27,505.05 214.16,504.96 Z" fill="rgb(189,54,35)"/>
<path d="M 0.00 512.00 L 0.00 0.00 L 512.00 0.00 L 1024.00 0.00 L 1024.00 512.00 L 1024.00 1024.00 L 512.00 1024.00 L 0.00 1024.00 L 0.00 512.00 ZM 634.94 970.35 C636.82,967.96 636.88,967.52 635.52,966.02 C633.69,964.00 633.58,963.00 635.19,963.00 C636.83,963.00 641.00,958.93 641.00,957.33 C641.00,955.28 637.63,955.76 636.23,958.00 C634.39,960.95 629.48,960.66 627.40,957.48 C625.18,954.09 625.94,945.25 628.62,943.29 C630.99,941.55 634.98,942.45 637.11,945.20 C638.69,947.25 641.00,946.98 641.00,944.76 C641.00,944.14 640.02,942.59 638.83,941.31 C636.25,938.57 628.74,938.09 625.36,940.46 C622.32,942.59 620.57,949.70 621.89,954.58 C623.19,959.38 625.62,963.00 627.56,963.00 C628.35,963.00 629.00,963.51 629.00,964.14 C629.00,964.77 629.78,965.85 630.74,966.55 C632.39,967.76 632.39,967.92 630.74,969.74 C628.50,972.21 628.54,973.00 630.93,973.00 C631.99,973.00 633.79,971.81 634.94,970.35 ZM 725.77 955.86 L 726.05 939.25 L 718.59 939.17 C708.45,939.05 706.76,940.42 706.20,949.21 C705.70,956.98 707.44,961.11 712.00,963.00 C714.36,963.98 715.68,964.01 717.59,963.14 C721.08,961.55 721.00,961.46 721.00,966.83 C721.00,972.08 721.57,973.23 723.95,972.77 C725.26,972.52 725.54,969.92 725.77,955.86 ZM 281.39 963.04 C288.40,960.37 290.30,953.11 285.12,948.75 C283.53,947.42 279.70,945.30 276.61,944.04 C272.49,942.37 270.82,941.12 270.38,939.37 C269.48,935.80 271.59,934.00 276.67,934.00 C280.55,934.00 281.30,934.37 282.80,937.01 C284.64,940.27 287.26,940.60 287.83,937.65 C288.75,932.88 279.40,927.96 273.03,929.87 C268.12,931.34 265.83,934.06 265.70,938.56 C265.57,943.02 268.43,945.88 275.68,948.56 C281.81,950.83 283.00,951.76 283.00,954.29 C283.00,960.23 275.70,961.86 270.85,957.00 C269.20,955.35 267.21,954.00 266.42,954.00 C264.24,954.00 264.73,957.40 267.25,959.77 C271.38,963.65 276.62,964.86 281.39,963.04 ZM 310.12 961.39 C311.16,960.45 312.00,959.31 312.00,958.85 C312.00,957.66 308.25,957.79 307.50,959.00 C306.37,960.83 301.94,960.03 299.45,957.55 C295.76,953.85 296.37,953.00 302.75,952.99 C311.59,952.97 313.00,952.34 313.00,948.46 C313.00,946.36 312.05,944.03 310.41,942.08 C308.23,939.48 307.12,939.00 303.33,939.00 C299.71,939.00 298.29,939.56 295.92,941.92 C293.38,944.46 293.00,945.59 293.00,950.49 C293.00,957.17 294.03,959.42 298.31,962.10 C301.99,964.40 307.14,964.09 310.12,961.39 ZM 333.00 962.69 L 336.50 962.50 L 336.78 950.75 C337.05,939.51 336.97,939.00 335.03,939.00 C333.14,939.00 333.00,939.62 333.00,947.94 C333.00,956.05 332.79,957.03 330.78,958.44 C327.74,960.57 324.28,960.40 323.04,958.07 C322.47,957.00 322.00,952.28 322.00,947.57 C322.00,939.67 321.84,939.00 320.00,939.00 C318.13,939.00 318.00,939.67 318.00,949.05 C318.00,958.49 318.15,959.24 320.56,961.65 C322.65,963.74 323.70,964.09 326.31,963.54 C328.06,963.17 331.08,962.79 333.00,962.69 ZM 411.00 962.69 L 414.50 962.50 L 414.50 951.00 C414.50,939.84 414.43,939.49 412.25,939.18 C410.06,938.87 410.00,939.10 410.00,947.78 C410.00,955.46 409.72,956.94 407.97,958.53 C406.36,959.98 405.37,960.17 403.22,959.41 C400.54,958.47 400.50,958.31 400.21,948.73 C399.93,939.03 399.92,939.00 397.37,939.00 L 394.81 939.00 L 395.16 949.09 C395.49,958.80 395.61,959.27 398.41,961.68 C400.71,963.65 401.97,964.04 404.41,963.53 C406.11,963.17 409.08,962.79 411.00,962.69 ZM 462.00 962.58 L 465.50 962.50 L 465.77 945.75 L 466.05 929.00 L 463.58 929.00 C461.30,929.00 461.08,929.42 460.80,934.23 L 460.50 939.47 L 456.32 939.16 C450.95,938.77 448.19,940.29 446.37,944.66 C444.13,950.02 445.48,956.68 449.66,960.86 C452.49,963.69 453.44,964.09 455.76,963.43 C457.27,963.00 460.08,962.62 462.00,962.58 ZM 487.90 961.43 C493.64,956.60 494.27,947.14 489.21,941.75 C487.15,939.56 485.73,939.00 482.25,939.00 C476.83,939.00 474.46,940.21 472.51,943.98 C466.35,955.89 478.34,969.48 487.90,961.43 ZM 523.02 962.49 C525.57,961.17 528.00,958.28 528.00,956.57 C528.00,955.29 524.65,956.13 522.27,958.00 C517.07,962.09 513.00,959.02 513.00,951.00 C513.00,943.55 516.80,940.22 522.07,943.04 C523.13,943.60 524.00,944.73 524.00,945.54 C524.00,947.54 526.91,947.39 527.70,945.34 C528.45,943.39 524.22,939.34 520.43,938.39 C516.92,937.51 512.08,939.82 509.89,943.42 C506.33,949.26 507.99,957.48 513.61,961.91 C516.77,964.39 519.07,964.53 523.02,962.49 ZM 550.25 959.83 C552.55,957.11 553.00,955.64 553.00,950.86 C553.00,946.18 552.53,944.60 550.41,942.08 C548.23,939.48 547.12,939.00 543.35,939.00 C540.88,939.00 538.00,939.46 536.94,940.03 C532.35,942.49 530.50,952.20 533.51,958.02 C536.97,964.71 545.36,965.61 550.25,959.83 ZM 614.37 961.93 C615.81,960.79 617.00,959.44 617.00,958.93 C617.00,957.68 613.28,957.74 612.50,959.00 C610.46,962.30 602.00,958.12 602.00,953.81 C602.00,952.21 602.95,952.00 610.13,952.00 L 618.26 952.00 L 617.69 947.75 C616.94,942.17 613.39,939.00 607.87,939.00 C597.00,939.00 593.43,955.34 602.90,961.71 C607.12,964.55 610.94,964.62 614.37,961.93 ZM 660.75 962.83 L 665.00 962.91 L 664.96 956.70 C664.90,948.15 663.54,941.87 661.41,940.31 C658.55,938.22 650.36,938.64 648.00,941.00 C644.34,944.66 646.63,947.64 650.39,944.10 C654.13,940.59 660.00,941.80 660.00,946.09 C660.00,948.10 658.02,949.00 653.64,949.00 C648.65,949.00 646.00,951.42 646.00,955.98 C646.00,960.86 649.96,964.56 653.98,963.45 C655.36,963.06 658.41,962.78 660.75,962.83 ZM 692.50 963.00 C692.86,962.41 694.82,962.27 697.22,962.65 C701.17,963.28 701.29,963.22 700.67,960.90 C700.32,959.58 700.02,955.01 700.01,950.75 C700.00,941.05 698.46,939.00 691.22,939.00 C685.85,939.00 682.00,941.11 682.00,944.06 C682.00,946.57 684.20,946.54 686.50,944.00 C688.63,941.65 691.84,941.42 694.56,943.44 C697.66,945.75 695.29,948.38 689.51,949.06 C684.39,949.66 681.00,952.50 681.00,956.19 C681.00,960.74 690.44,966.33 692.50,963.00 ZM 747.25 962.87 L 751.00 962.95 L 751.00 950.98 C751.00,939.67 750.89,939.00 749.00,939.00 C747.15,939.00 747.00,939.67 747.00,947.94 C747.00,956.05 746.79,957.03 744.78,958.44 C738.92,962.55 736.00,958.83 736.00,947.28 C736.00,939.67 735.84,939.00 734.00,939.00 C732.14,939.00 732.00,939.67 732.00,948.58 C732.00,957.91 732.08,958.23 735.03,961.19 C737.51,963.67 738.56,964.09 740.78,963.50 C742.28,963.11 745.19,962.82 747.25,962.87 ZM 774.56 960.10 C773.74,958.77 770.34,958.65 769.55,959.92 C769.24,960.43 769.73,961.58 770.63,962.49 C772.09,963.95 772.46,963.97 773.76,962.67 C774.57,961.86 774.93,960.70 774.56,960.10 ZM 359.39 961.42 C359.73,960.55 360.00,956.26 360.00,951.90 C360.00,944.40 360.14,943.89 362.50,942.82 C364.37,941.97 365.63,941.97 367.50,942.82 C369.91,943.92 370.00,944.29 370.00,953.48 C370.00,962.33 370.14,963.00 372.00,963.00 C373.22,963.00 374.02,962.31 374.06,961.25 C374.39,951.41 375.09,944.51 375.84,943.76 C376.34,943.26 378.27,943.00 380.12,943.18 L 383.50 943.50 L 384.00 953.00 C384.46,961.67 384.68,962.50 386.50,962.50 C388.35,962.50 388.52,961.74 388.78,952.30 C389.06,942.35 389.01,942.05 386.55,940.44 C384.72,939.24 382.86,938.96 379.76,939.40 C377.42,939.74 374.83,939.99 374.00,939.95 C373.17,939.92 368.56,939.74 363.75,939.56 L 355.00 939.23 L 355.00 951.12 C355.00,962.11 355.14,963.00 356.89,963.00 C357.93,963.00 359.06,962.29 359.39,961.42 ZM 425.00 954.02 C425.00,945.51 425.13,944.96 427.54,943.38 C429.56,942.06 430.58,941.94 432.50,942.82 C434.78,943.86 434.94,944.49 435.21,953.21 C435.48,961.98 435.63,962.52 437.75,962.82 C439.94,963.13 440.00,962.91 440.00,954.00 C440.00,945.33 439.06,941.40 436.60,939.77 C436.00,939.37 432.24,939.10 428.25,939.18 L 421.00 939.30 L 421.00 951.15 C421.00,962.33 421.11,963.00 423.00,963.00 C424.85,963.00 425.00,962.33 425.00,954.02 ZM 563.00 953.48 C563.00,944.03 563.02,943.94 565.72,942.92 C567.60,942.20 569.15,942.20 570.72,942.92 C572.86,943.89 573.00,944.54 573.00,953.48 C573.00,962.93 573.02,963.00 575.46,963.00 C577.89,963.00 577.93,962.87 578.21,953.25 L 578.50 943.50 L 583.00 943.50 L 587.50 943.50 L 587.79 953.25 C588.05,962.18 588.24,963.00 590.04,963.00 C591.85,963.00 592.00,962.27 592.00,953.22 C592.00,941.30 590.87,939.00 584.99,939.00 C582.85,939.00 579.96,939.52 578.58,940.15 C576.71,941.00 575.71,941.00 574.70,940.17 C573.93,939.53 570.25,939.09 566.29,939.17 L 559.24 939.30 L 558.63 944.40 C557.81,951.19 557.83,961.50 558.67,962.33 C559.03,962.70 560.16,963.00 561.17,963.00 C562.82,963.00 563.00,962.04 563.00,953.48 ZM 762.00 951.00 C762.00,939.67 761.89,939.00 760.00,939.00 C758.11,939.00 758.00,939.67 758.00,951.00 C758.00,962.33 758.11,963.00 760.00,963.00 C761.89,963.00 762.00,962.33 762.00,951.00 ZM 761.81 931.74 C762.04,930.54 761.50,930.00 760.07,930.00 C758.64,930.00 758.00,930.64 758.00,932.07 C758.00,934.64 761.31,934.35 761.81,931.74 ZM 297.36 914.77 C302.56,913.22 308.20,907.61 309.74,902.47 C310.50,899.94 310.97,889.97 311.04,875.00 L 311.15 851.50 L 307.08 851.19 C303.57,850.93 303.00,851.16 303.00,852.88 C303.00,855.19 301.44,856.52 300.50,855.00 C299.38,853.19 292.18,850.00 289.19,850.00 C281.85,850.00 273.81,855.01 270.91,861.38 C268.75,866.14 268.34,877.73 270.14,883.10 C274.10,894.94 287.36,900.64 296.51,894.43 C300.86,891.47 302.17,892.33 301.02,897.41 C299.45,904.38 295.14,908.00 288.41,908.00 C284.96,908.00 280.00,904.48 280.00,902.05 C280.00,901.47 277.98,901.00 275.50,901.00 C270.17,901.00 269.63,902.69 273.25,908.03 C277.89,914.88 287.77,917.65 297.36,914.77 ZM 210.77 874.25 L 211.04 851.00 L 206.52 851.00 L 202.00 851.00 L 202.00 873.92 C202.00,898.64 201.87,898.06 207.50,897.69 L 210.50 897.50 L 210.77 874.25 ZM 245.45 894.91 L 248.98 891.81 L 249.99 894.47 C250.87,896.78 251.48,897.08 254.75,896.81 L 258.50 896.50 L 258.40 878.20 C258.32,861.51 258.13,859.65 256.30,857.20 C253.07,852.86 248.48,850.76 241.17,850.29 C235.60,849.93 233.76,850.24 230.02,852.18 C225.34,854.61 221.38,859.95 222.37,862.52 C222.74,863.50 224.34,864.00 227.06,864.00 C230.37,864.00 231.29,863.60 231.72,861.96 C232.34,859.59 236.83,857.00 240.32,857.00 C246.01,857.00 251.46,865.47 248.20,869.25 C247.00,870.64 245.07,871.00 238.81,871.00 C226.49,871.00 221.14,874.24 220.33,882.21 C219.40,891.31 226.09,898.00 236.11,898.00 C241.19,898.00 242.38,897.61 245.45,894.91 ZM 352.47 895.72 C356.43,893.48 361.00,887.92 361.00,885.35 C361.00,884.45 359.71,884.00 357.10,884.00 C353.95,884.00 352.50,884.70 349.57,887.63 C346.30,890.90 345.55,891.20 341.89,890.71 C337.19,890.08 334.28,887.81 332.36,883.28 C329.69,876.98 329.48,877.08 346.25,876.78 L 361.50 876.50 L 361.80 872.31 C362.43,863.74 358.43,855.87 351.63,852.27 C349.58,851.19 346.08,850.61 341.50,850.61 C335.60,850.60 333.84,851.02 330.27,853.30 C324.62,856.91 321.81,862.57 321.23,871.50 C320.45,883.59 324.07,891.76 331.97,895.75 C338.08,898.84 346.99,898.82 352.47,895.72 ZM 448.02 896.15 C452.72,893.65 456.00,888.62 456.00,883.92 C456.00,875.69 453.00,873.04 439.70,869.54 C432.12,867.55 430.00,866.00 430.00,862.46 C430.00,859.42 432.65,858.00 438.37,858.00 C442.22,858.00 443.17,858.43 445.00,861.00 C446.67,863.34 447.89,864.00 450.60,864.00 C454.96,864.00 455.92,861.87 453.56,857.48 C451.13,852.98 445.26,850.50 437.03,850.51 C425.91,850.52 418.82,856.90 420.42,865.45 C421.65,872.00 427.04,875.80 439.53,878.94 C445.53,880.45 447.43,882.16 446.63,885.33 C445.87,888.37 441.47,891.00 437.13,891.00 C433.89,891.00 428.00,886.75 428.00,884.41 C428.00,883.41 426.71,883.00 423.50,883.00 C418.50,883.00 417.94,884.06 420.40,888.80 C422.35,892.53 426.19,895.94 429.62,896.97 C434.91,898.55 444.28,898.13 448.02,896.15 ZM 515.87 895.10 C523.16,889.25 522.72,889.32 526.85,893.35 C530.15,896.57 531.17,897.00 535.63,897.00 C538.40,897.00 540.96,896.71 541.32,896.35 C541.68,895.99 539.59,892.95 536.67,889.60 C533.75,886.24 531.04,882.96 530.65,882.29 C530.26,881.63 531.98,877.03 534.47,872.06 C536.96,867.10 539.00,862.81 539.00,862.52 C539.00,862.23 536.73,862.00 533.94,862.00 L 528.89 862.00 L 526.38 867.48 C525.00,870.50 523.49,873.20 523.02,873.49 C522.55,873.78 520.14,871.70 517.66,868.86 L 513.16 863.72 L 519.08 858.08 C524.69,852.74 525.00,852.20 525.00,847.67 C525.00,841.22 522.91,837.62 517.71,835.10 C508.85,830.81 495.96,833.30 492.52,839.96 C489.67,845.47 491.43,855.83 495.64,858.30 C497.81,859.57 497.23,861.81 494.25,863.66 C484.54,869.69 481.61,878.15 485.95,887.69 C487.89,891.97 493.38,896.33 498.09,897.33 C503.47,898.47 513.18,897.26 515.87,895.10 ZM 642.21 895.50 C646.66,892.48 648.00,892.36 648.00,895.00 C648.00,896.66 648.67,897.00 651.89,897.00 C654.52,897.00 655.98,896.49 656.39,895.42 C656.73,894.55 657.00,884.20 657.00,872.42 L 657.00 851.00 L 652.00 851.00 L 647.00 851.00 L 647.00 866.79 C647.00,882.55 647.00,882.58 644.25,885.86 C640.35,890.51 634.23,891.32 630.58,887.67 C628.01,885.10 628.00,885.03 628.00,868.05 L 628.00 851.00 L 623.00 851.00 L 618.00 851.00 L 618.00 868.75 C618.00,883.65 618.28,887.06 619.75,889.98 C623.75,897.94 634.67,900.63 642.21,895.50 ZM 678.00 881.95 C678.59,863.64 679.29,861.85 686.75,859.68 C691.35,858.35 691.51,858.17 691.81,854.14 C692.03,851.14 691.69,849.82 690.60,849.40 C688.38,848.55 682.88,850.62 679.81,853.48 L 677.13 855.96 L 676.81 853.23 C676.55,850.95 675.96,850.45 673.18,850.18 C671.36,850.01 669.34,850.31 668.68,850.85 C667.29,852.01 666.97,894.68 668.34,896.80 C668.87,897.62 670.73,897.99 673.34,897.80 L 677.50 897.50 L 678.00 881.95 ZM 708.79 897.15 C709.79,896.52 710.04,891.23 709.91,873.67 L 709.74 851.00 L 704.87 851.00 L 700.00 851.00 L 700.00 873.93 L 700.00 896.86 L 702.25 897.29 C706.07,898.03 707.45,898.00 708.79,897.15 ZM 748.70 895.39 C757.31,889.01 758.32,879.27 750.94,873.79 C749.53,872.75 744.81,870.98 740.44,869.86 C731.15,867.48 730.00,866.72 730.00,862.93 C730.00,859.62 733.15,857.00 737.14,857.00 C741.22,857.00 742.93,857.95 744.59,861.18 C745.91,863.74 746.59,864.07 749.81,863.81 C752.97,863.54 753.54,863.12 753.81,860.84 C754.01,859.08 753.34,857.45 751.81,856.01 C740.51,845.35 720.00,850.18 720.00,863.50 C720.00,870.91 724.62,874.72 738.12,878.43 C741.21,879.28 744.28,880.63 744.95,881.43 C747.06,883.98 745.75,887.36 741.85,889.45 C736.70,892.21 731.12,890.83 729.00,886.27 C727.66,883.38 727.05,883.04 723.25,883.02 C719.50,883.00 719.00,883.27 719.00,885.25 C719.01,889.04 722.79,894.00 727.27,896.09 C733.06,898.79 744.62,898.41 748.70,895.39 ZM 869.02 895.75 C874.88,892.79 879.55,886.47 880.98,879.59 C883.62,866.89 877.27,854.81 866.18,851.44 C859.42,849.39 855.23,849.73 849.00,852.81 C844.20,855.20 843.13,856.30 840.56,861.52 C836.42,869.92 836.33,879.47 840.31,886.27 C843.45,891.63 848.69,896.21 852.74,897.13 C858.70,898.50 864.58,898.00 869.02,895.75 ZM 174.81 891.75 C175.88,888.86 178.42,881.78 180.46,876.00 C182.50,870.22 186.61,858.69 189.59,850.36 C192.56,842.03 195.00,834.70 195.00,834.06 C195.00,833.28 193.24,833.00 189.75,833.20 L 184.50 833.50 L 180.00 847.04 C177.52,854.49 174.18,864.84 172.56,870.04 C168.79,882.21 167.75,883.44 166.06,877.79 C165.35,875.43 164.42,872.60 163.98,871.50 C163.55,870.40 160.65,861.51 157.54,851.75 C154.43,841.99 151.57,833.98 151.19,833.95 C150.81,833.93 148.36,833.72 145.75,833.48 C141.75,833.13 141.01,833.33 141.03,834.78 C141.06,836.57 155.53,877.83 161.89,894.25 C162.85,896.74 163.42,897.00 167.90,897.00 L 172.86 897.00 L 174.81 891.75 ZM 381.08 885.75 C381.26,862.59 382.72,859.00 391.96,859.00 C399.96,859.00 400.44,860.15 400.82,880.10 L 401.13 897.00 L 405.62 897.00 L 410.12 897.00 L 409.81 877.10 C409.46,854.58 409.42,854.46 401.14,850.76 C395.75,848.35 389.76,849.00 384.52,852.55 C380.16,855.51 380.00,855.53 380.00,853.00 C380.00,851.33 379.33,851.00 376.00,851.00 L 372.00 851.00 L 372.00 874.00 L 372.00 897.00 L 376.50 897.00 L 381.00 897.00 L 381.08 885.75 ZM 596.53 890.53 C596.92,886.97 597.06,874.93 596.86,863.78 L 596.50 843.50 L 605.70 843.00 C610.77,842.72 615.41,842.00 616.02,841.38 C616.64,840.77 616.99,838.52 616.82,836.38 L 616.50 832.50 L 591.00 832.50 L 565.50 832.50 L 565.50 837.50 L 565.50 842.50 L 575.25 842.79 L 585.00 843.07 L 585.00 870.04 L 585.00 897.00 L 590.42 897.00 L 595.84 897.00 L 596.53 890.53 ZM 775.00 879.66 C775.48,863.46 775.59,862.75 777.86,860.91 C780.65,858.65 786.78,858.39 789.54,860.40 C791.28,861.68 791.50,863.46 791.84,879.45 L 792.23 897.10 L 796.86 896.80 L 801.50 896.50 L 802.00 879.85 C802.58,860.50 803.19,859.00 810.46,859.00 C818.08,859.00 818.24,859.38 818.79,879.40 L 819.28 897.10 L 823.89 896.80 L 828.50 896.50 L 828.49 878.50 C828.48,863.22 828.21,860.01 826.72,857.26 C822.04,848.64 810.54,847.71 802.26,855.28 L 800.03 857.32 L 797.63 854.73 C792.73,849.45 782.59,848.95 776.93,853.71 C774.17,856.03 774.00,856.06 774.00,854.20 C774.00,851.23 767.03,849.52 765.45,852.09 C765.08,852.69 765.10,863.06 765.50,875.14 L 766.24 897.10 L 770.37 896.80 L 774.50 896.50 L 775.00 879.66 ZM 211.80 837.75 L 212.11 833.00 L 207.11 833.00 C204.37,833.00 201.94,833.34 201.71,833.75 C201.49,834.16 201.52,836.44 201.77,838.80 L 202.22 843.10 L 206.86 842.80 L 211.50 842.50 L 211.80 837.75 ZM 710.50 838.00 L 710.50 833.50 L 705.25 833.20 L 700.00 832.90 L 700.00 838.00 L 700.00 843.10 L 705.25 842.80 L 710.50 842.50 L 710.50 838.00 ZM 539.88 796.58 C546.41,794.22 554.10,789.55 557.62,785.81 C567.62,775.21 570.39,767.54 569.82,752.00 C569.48,742.69 569.12,740.97 566.66,736.81 C559.79,725.22 548.33,719.61 516.00,712.03 C504.86,709.42 496.62,705.96 493.96,702.77 C489.06,696.90 489.42,688.85 494.80,683.69 C501.04,677.71 515.29,675.37 526.81,678.44 C535.99,680.88 539.93,684.77 540.95,692.38 L 541.50 696.50 L 553.77 696.78 C568.16,697.11 567.91,697.31 566.07,687.00 C563.90,674.84 557.43,666.25 546.20,660.60 C537.41,656.19 530.01,654.74 516.00,654.68 C485.04,654.56 467.23,666.27 462.89,689.61 C459.66,706.92 466.30,721.15 480.80,728.05 C484.49,729.80 488.27,731.62 489.22,732.10 C490.16,732.58 492.64,733.40 494.72,733.92 C527.92,742.20 532.69,743.79 537.12,748.00 C547.08,757.48 540.11,773.59 524.54,777.08 C517.00,778.77 504.49,777.84 499.41,775.22 C492.69,771.77 488.33,765.83 486.56,757.75 L 485.96 755.00 L 472.98 755.00 L 460.00 755.00 L 460.01 758.75 C460.03,763.64 462.12,771.36 464.96,777.00 C470.27,787.54 484.86,796.80 499.50,798.92 C514.86,801.14 529.63,800.29 539.88,796.58 ZM 621.25 796.12 C621.66,796.05 622.00,784.53 622.00,770.50 L 622.00 745.00 L 633.40 745.00 L 644.81 745.00 L 648.53 752.25 C650.58,756.24 652.58,759.95 652.99,760.50 C653.39,761.05 655.65,765.10 657.99,769.50 C660.34,773.90 664.49,781.66 667.22,786.75 L 672.18 796.00 L 688.09 796.00 C696.84,796.00 704.00,795.76 704.00,795.48 C704.00,794.89 689.20,769.07 687.96,767.50 C686.46,765.60 673.00,741.67 673.00,740.91 C673.00,740.49 675.46,739.02 678.47,737.64 C686.40,734.01 693.69,726.79 697.29,719.00 C700.09,712.93 700.29,711.70 700.32,700.50 C700.34,690.50 699.98,687.57 698.17,682.92 C694.19,672.76 687.00,666.19 675.50,662.24 C664.99,658.62 657.42,658.00 624.12,658.00 L 591.90 658.00 L 592.20 726.75 L 592.50 795.50 L 597.50 796.06 C601.62,796.52 618.51,796.57 621.25,796.12 ZM 377.77 768.25 L 378.03 741.00 L 407.52 741.00 L 437.00 741.00 L 437.00 729.00 L 437.00 717.00 L 407.50 717.00 L 378.00 717.00 L 378.00 700.50 C378.00,691.42 377.89,683.66 377.75,683.25 C377.61,682.84 392.80,682.28 411.50,682.00 L 445.50 681.50 L 445.50 669.50 L 445.50 657.50 L 396.75 657.24 L 348.00 656.98 L 348.00 726.52 L 348.00 796.05 L 362.75 795.78 L 377.50 795.50 L 377.77 768.25 ZM 551.32 609.58 C583.54,603.97 606.53,595.87 634.41,580.30 C649.23,572.02 671.45,556.20 689.05,541.39 C702.62,529.96 703.38,528.24 692.49,533.57 C685.03,537.21 653.50,549.74 646.00,552.03 C640.97,553.57 639.50,554.34 626.00,562.57 C607.07,574.10 585.91,582.80 564.50,587.84 C545.95,592.22 534.64,594.01 525.75,594.01 L 518.00 594.00 L 518.00 587.00 L 518.00 580.00 L 513.00 580.00 L 508.00 580.00 L 508.00 586.38 C508.00,590.31 507.52,593.12 506.75,593.70 C505.08,594.96 484.05,593.66 471.43,591.52 C465.97,590.59 456.55,588.47 450.50,586.82 C442.18,584.54 436.03,583.60 425.25,582.96 C410.79,582.11 384.94,579.40 381.75,578.41 C380.79,578.11 380.00,578.38 380.00,579.00 C380.00,580.26 397.26,588.63 411.82,594.43 C425.43,599.86 440.65,604.40 455.00,607.33 C479.57,612.33 486.75,612.96 514.50,612.51 C532.52,612.22 539.19,611.69 551.32,609.58 ZM 481.00 572.99 C513.07,571.25 552.30,566.21 574.50,560.99 C578.90,559.96 585.88,558.36 590.00,557.44 C594.12,556.52 604.47,553.82 613.00,551.44 C682.03,532.21 736.82,504.42 781.75,465.84 C802.55,447.99 819.19,426.16 827.03,406.43 C830.61,397.42 834.00,381.16 834.00,373.00 C833.99,365.55 831.61,351.79 829.07,344.57 C823.87,329.79 810.63,311.19 797.14,299.72 C787.16,291.23 779.12,285.55 778.27,286.39 C777.95,286.71 779.91,289.35 782.63,292.24 C789.34,299.38 792.20,303.30 796.50,311.29 C800.18,318.10 800.90,320.01 803.56,329.80 C807.72,345.11 803.55,365.86 792.59,384.41 C780.66,404.58 759.79,424.54 726.44,447.65 C703.10,463.83 656.63,487.33 622.50,500.21 C599.89,508.74 567.14,518.87 549.50,522.79 C521.00,529.13 503.89,532.48 492.50,533.97 C488.10,534.54 481.35,535.44 477.50,535.98 C445.56,540.41 404.43,542.51 379.00,541.03 C307.35,536.84 261.70,526.70 220.64,505.86 C212.40,501.68 209.76,501.41 214.50,505.24 C221.67,511.02 235.03,520.24 240.00,522.83 C243.02,524.41 247.52,526.91 250.00,528.39 C256.36,532.19 274.10,540.67 282.99,544.15 C287.12,545.77 291.92,547.75 293.65,548.55 C295.38,549.35 297.30,550.00 297.91,550.00 C298.53,550.00 299.81,550.44 300.76,550.99 C301.72,551.53 309.48,553.95 318.00,556.36 C347.88,564.83 376.32,569.81 410.00,572.48 C429.98,574.06 457.66,574.26 481.00,572.99 ZM 446.50 521.59 C480.86,518.24 510.84,513.04 545.34,504.45 C560.24,500.73 598.17,488.35 612.00,482.68 C616.67,480.77 624.10,477.73 628.50,475.92 C638.11,471.98 660.70,460.82 663.50,458.63 C666.25,456.48 664.42,456.55 654.19,459.01 C649.61,460.10 644.15,461.00 642.05,461.00 C638.70,461.00 638.13,460.65 637.52,458.25 C636.55,454.42 638.03,410.76 639.17,409.33 C640.20,408.05 639.74,387.70 638.23,368.00 C637.70,361.12 637.38,355.37 637.51,355.21 C637.65,355.04 639.04,354.68 640.62,354.39 C642.19,354.11 644.28,353.15 645.25,352.27 C647.40,350.33 652.00,336.19 652.00,331.53 C652.00,328.58 652.60,327.80 656.97,325.11 C662.55,321.68 663.58,319.36 662.56,312.57 C662.11,309.56 662.39,307.01 663.44,304.48 C664.29,302.45 664.73,300.38 664.42,299.87 C663.76,298.80 649.68,292.00 648.12,292.00 C647.52,292.00 646.16,293.72 645.09,295.82 C641.84,302.19 640.71,302.57 637.14,298.51 C634.22,295.18 633.17,293.22 628.24,281.89 C627.05,279.16 624.66,276.11 622.37,274.40 C617.33,270.64 617.03,270.17 617.02,265.87 C617.01,263.88 616.33,260.63 615.50,258.65 C614.67,256.68 614.00,252.57 614.00,249.53 L 614.00 244.00 L 619.94 244.00 C623.21,244.00 626.14,243.58 626.45,243.07 C626.77,242.57 624.47,241.33 621.34,240.32 C618.21,239.32 615.49,238.02 615.30,237.44 C615.11,236.86 617.89,235.35 621.48,234.08 C625.07,232.82 628.00,231.34 628.00,230.80 C628.00,229.68 618.50,230.70 615.82,232.12 C613.73,233.21 612.88,233.21 611.12,232.10 C610.02,231.40 610.48,230.12 613.37,225.76 C615.37,222.75 617.00,220.00 617.00,219.65 C617.00,217.81 613.93,219.50 610.00,223.50 C607.57,225.98 605.06,228.00 604.43,228.00 C603.18,228.00 602.00,221.37 602.00,214.36 C602.00,211.96 601.63,210.00 601.17,210.00 C600.21,210.00 598.01,218.88 597.98,222.83 C597.95,228.49 596.53,228.66 590.98,223.67 C583.41,216.86 581.92,217.36 587.00,225.00 C588.65,227.48 589.99,229.84 590.00,230.25 C590.00,231.13 581.83,231.05 577.54,230.13 C575.17,229.62 574.42,228.80 573.80,226.00 C569.33,206.13 568.78,202.54 568.64,192.84 C568.56,186.97 568.16,181.83 567.75,181.42 C566.44,180.10 566.94,177.00 568.47,177.00 C569.29,177.00 570.66,175.62 571.54,173.93 C573.72,169.70 572.64,165.38 568.92,163.46 C566.57,162.25 566.00,161.29 566.00,158.60 C566.00,156.36 566.67,154.79 568.01,153.87 C569.77,152.67 569.89,152.05 568.99,148.85 C567.74,144.41 565.94,143.58 561.52,145.43 C557.23,147.22 554.70,151.10 554.03,156.90 C553.60,160.65 553.00,161.72 550.75,162.79 C548.31,163.96 548.00,164.65 548.00,168.98 C548.00,173.96 549.73,177.00 552.58,177.00 C553.73,177.00 553.89,178.08 553.37,182.48 C552.99,185.71 553.15,188.49 553.74,189.23 C554.30,189.93 555.02,192.98 555.35,196.00 C555.68,199.02 556.43,204.20 557.03,207.50 C557.62,210.80 558.49,217.55 558.95,222.50 C559.41,227.45 560.34,234.80 561.03,238.84 C562.19,245.70 562.13,246.45 560.13,250.45 C557.13,256.46 557.24,263.94 560.38,267.67 C561.75,269.30 563.01,272.41 563.34,275.00 C563.66,277.48 564.33,282.79 564.82,286.81 C565.59,293.09 566.18,294.59 569.00,297.50 C571.97,300.56 572.21,301.27 571.61,305.03 C571.25,307.32 570.12,310.83 569.11,312.84 C565.16,320.71 563.76,326.74 565.00,330.49 C565.63,332.42 567.06,334.63 568.18,335.41 C570.17,336.81 570.18,336.96 568.50,344.70 C566.93,352.00 566.92,353.33 568.40,363.31 C569.51,370.76 570.00,381.16 570.00,397.20 C570.00,419.03 571.11,432.30 573.11,434.45 C574.49,435.92 574.13,448.04 572.58,452.49 C571.06,456.86 569.09,458.63 566.76,457.74 C565.93,457.42 562.87,452.36 559.95,446.50 L 554.66 435.84 L 556.18 429.47 L 557.70 423.10 L 553.73 422.80 L 549.75 422.50 L 545.53 411.00 C543.21,404.67 540.30,395.45 539.06,390.50 C537.81,385.55 536.32,380.49 535.73,379.26 C534.97,377.64 535.03,375.54 535.97,371.63 C537.34,365.93 536.85,363.77 534.30,364.22 C532.44,364.55 531.19,360.44 528.18,344.00 C526.32,333.88 524.83,322.57 523.62,309.50 C523.41,307.30 522.75,300.77 522.15,295.00 C519.85,273.05 518.99,253.48 518.99,223.28 L 519.00 192.06 L 530.75 191.78 L 542.50 191.50 L 542.50 187.00 L 542.50 182.50 L 530.88 182.22 L 519.25 181.94 L 518.54 171.94 C518.15,166.44 518.16,149.13 518.56,133.47 L 519.29 105.00 L 524.17 105.00 C528.72,105.00 543.93,109.31 549.21,112.09 C556.96,116.18 568.55,124.94 575.12,131.68 C584.04,140.82 595.00,153.86 595.00,155.33 C595.00,155.88 595.63,157.05 596.39,157.92 C598.04,159.79 608.00,177.11 608.00,178.11 C608.00,178.48 604.29,179.05 599.75,179.36 C595.21,179.67 588.46,180.22 584.75,180.58 L 578.00 181.23 L 578.00 185.65 C578.00,188.75 578.47,190.24 579.58,190.67 C580.45,191.00 588.62,190.73 597.73,190.07 C616.55,188.71 614.61,187.96 618.51,198.07 C620.05,202.07 622.44,205.99 624.61,208.07 C632.78,215.92 636.29,227.29 635.96,244.84 C635.81,252.82 636.33,261.35 637.36,267.92 C638.26,273.64 639.11,278.44 639.25,278.57 C639.39,278.71 641.53,278.97 644.00,279.16 C648.15,279.47 648.53,279.30 648.86,277.00 C649.37,273.48 645.41,250.99 641.46,235.00 C638.65,223.62 633.83,209.27 627.76,194.25 C625.56,188.82 625.45,188.00 626.87,187.97 C628.56,187.94 658.45,184.92 677.41,182.86 L 688.32 181.68 L 691.78 185.59 C693.68,187.74 696.23,190.62 697.44,192.00 C705.01,200.58 719.96,225.15 725.73,238.50 C737.32,265.31 742.70,286.49 743.66,309.12 L 744.28 323.75 L 705.68 324.49 L 667.09 325.23 L 663.57 329.75 C661.63,332.23 660.29,334.66 660.58,335.13 C660.88,335.61 679.77,336.00 702.56,336.00 L 744.00 336.00 L 744.00 341.40 C744.00,348.42 741.23,373.35 739.88,378.50 C737.01,389.43 733.59,400.22 730.89,406.86 C729.24,410.91 728.12,414.46 728.41,414.75 C729.29,415.63 742.74,404.11 749.87,396.36 C757.05,388.57 756.94,388.83 759.92,371.00 C764.42,344.03 763.05,298.35 757.07,276.00 C748.40,243.53 738.35,220.49 722.43,196.52 C714.70,184.89 711.84,181.06 703.04,170.50 C697.42,163.77 677.87,145.33 668.50,137.93 C654.71,127.03 654.79,127.08 643.00,119.98 C615.32,103.30 582.80,92.01 548.00,87.01 C527.26,84.03 491.73,84.75 468.50,88.62 C444.00,92.69 412.36,103.67 391.50,115.32 C347.82,139.72 310.00,179.57 289.17,223.13 C276.67,249.26 271.76,263.93 266.93,289.50 C264.85,300.56 262.95,335.00 264.43,335.00 C265.57,335.00 278.38,326.50 279.61,324.92 C280.23,324.14 281.27,317.20 281.93,309.50 C282.59,301.80 283.54,293.92 284.04,292.00 C284.53,290.08 286.15,283.55 287.63,277.50 C295.49,245.37 310.59,215.56 333.93,186.09 C337.26,181.88 337.48,181.78 341.93,182.34 C344.44,182.66 351.67,183.57 358.00,184.37 C364.33,185.17 376.36,186.39 384.75,187.09 C395.84,188.01 400.00,188.71 400.00,189.64 C400.00,190.35 399.07,193.27 397.94,196.14 C384.60,229.99 376.70,268.58 374.41,311.00 C374.04,317.88 373.29,324.06 372.75,324.75 C372.04,325.65 367.66,326.00 357.27,326.00 C343.87,326.00 342.84,326.13 343.50,327.75 C343.89,328.71 344.64,330.95 345.15,332.72 L 346.08 335.94 L 359.79 336.22 L 373.50 336.50 L 374.24 348.50 C374.65,355.10 375.94,369.27 377.12,380.00 C378.93,396.56 379.55,399.76 381.24,401.25 C383.44,403.19 388.51,403.60 389.55,401.92 C389.92,401.32 389.73,397.39 389.13,393.17 C385.95,370.92 385.01,362.27 384.39,349.75 L 383.71 336.00 L 393.33 336.00 C402.43,336.00 403.04,335.87 404.55,333.56 C405.43,332.21 406.01,330.08 405.83,328.81 C405.51,326.60 405.03,326.48 395.00,326.00 L 384.50 325.50 L 384.72 312.00 C384.92,300.20 386.13,288.81 390.06,261.73 C392.80,242.81 401.33,213.46 409.20,195.87 L 412.29 188.94 L 419.90 189.71 C424.08,190.13 429.75,190.49 432.50,190.49 L 437.50 190.50 L 437.80 185.90 L 438.10 181.29 L 432.80 180.65 C429.88,180.30 425.44,180.01 422.92,180.01 C420.40,180.00 418.05,179.72 417.71,179.38 C417.37,179.04 418.48,176.00 420.17,172.63 C430.57,151.94 451.22,127.65 467.29,117.19 C471.58,114.40 478.66,110.73 483.03,109.05 C491.50,105.78 505.65,103.25 507.14,104.74 C507.63,105.23 507.91,122.76 507.76,144.06 L 507.50 182.50 L 478.75 182.21 L 450.00 181.93 L 450.00 184.40 C450.00,185.76 450.44,188.02 450.98,189.43 L 451.95 192.00 L 480.12 192.00 L 508.28 192.00 L 507.73 238.25 C507.22,281.75 506.40,299.71 503.84,323.50 C502.32,337.62 500.34,350.02 499.08,353.32 C498.49,354.86 498.00,357.65 498.00,359.50 C498.00,362.57 497.71,362.90 494.75,363.19 C491.90,363.46 491.55,363.80 491.93,366.00 C492.16,367.38 492.31,373.45 492.26,379.50 C492.16,390.66 490.26,399.25 484.20,415.86 C482.03,421.83 480.82,422.96 476.64,422.98 C474.45,423.00 473.93,423.37 474.39,424.59 C474.73,425.46 475.28,428.52 475.62,431.39 C476.14,435.82 475.82,437.42 473.52,441.96 C471.66,445.64 470.56,446.90 470.01,446.01 C469.57,445.30 469.39,423.29 469.61,397.11 C470.01,349.69 470.02,349.49 472.25,346.50 C474.39,343.63 474.50,342.46 474.85,320.33 L 475.21 297.17 L 472.85 296.83 C470.67,296.52 470.52,296.11 470.79,291.13 C470.98,287.63 470.60,285.18 469.70,284.13 C468.94,283.23 466.66,279.48 464.64,275.79 C462.61,272.11 460.51,268.82 459.98,268.48 C459.42,268.14 459.00,261.94 459.00,254.00 C459.00,240.22 458.97,240.06 455.61,233.31 C453.75,229.56 451.90,224.93 451.50,223.00 C451.10,221.07 450.42,219.05 450.00,218.50 C449.57,217.95 449.00,215.70 448.73,213.50 C447.07,200.02 444.48,185.00 443.82,185.00 C442.77,185.00 442.32,187.58 441.16,200.50 C439.92,214.31 438.24,221.33 433.64,231.95 C430.07,240.20 430.00,240.59 430.00,253.45 L 430.00 266.55 L 426.50 271.86 C424.58,274.78 423.00,277.40 423.00,277.68 C423.00,277.96 422.05,279.52 420.89,281.15 C419.21,283.52 418.92,284.96 419.43,288.38 C420.22,293.65 419.43,295.89 416.36,297.05 L 414.00 297.95 L 414.00 321.82 C414.00,344.42 414.11,345.79 416.00,347.50 C417.92,349.24 418.00,350.58 418.00,381.64 L 418.00 413.97 L 422.25 416.66 C424.59,418.13 425.92,419.53 425.23,419.76 C424.53,419.99 419.45,419.69 413.94,419.09 C408.43,418.49 401.01,418.00 397.46,418.00 L 391.00 418.00 L 391.00 421.30 C391.00,425.45 389.47,427.00 385.41,427.00 C381.95,427.00 381.00,425.70 381.00,420.98 C381.00,418.17 380.87,418.11 374.03,417.43 C368.09,416.85 366.96,416.43 366.44,414.62 C365.10,409.98 358.63,393.42 357.67,392.18 C357.11,391.46 356.35,385.01 355.99,377.85 C355.30,364.03 354.68,362.47 350.31,363.49 C349.11,363.78 347.77,363.44 347.33,362.75 C346.13,360.84 340.00,341.83 340.00,340.00 C340.00,339.12 339.61,337.97 339.14,337.45 C338.67,336.93 336.80,331.89 334.98,326.26 C333.17,320.63 330.82,315.25 329.78,314.30 C327.97,312.66 327.52,312.66 321.18,314.31 C312.28,316.63 286.72,329.41 273.30,338.25 C262.00,345.69 244.72,361.77 241.66,367.69 C240.37,370.19 239.88,375.10 239.40,390.19 C238.87,407.24 238.57,409.83 236.82,412.32 C235.13,414.72 234.93,416.14 235.46,421.82 C235.80,425.49 236.32,433.58 236.60,439.78 C237.11,450.79 237.06,451.14 234.56,454.11 C231.68,457.54 231.17,463.06 233.19,469.01 C233.84,470.93 234.63,478.12 234.94,484.99 L 235.50 497.48 L 238.50 498.92 C247.00,502.98 273.67,510.70 292.00,514.41 C311.60,518.36 340.12,522.00 362.50,523.39 C376.23,524.24 431.41,523.06 446.50,521.59 ZM 649.37 368.25 C649.89,362.40 649.74,361.00 648.61,361.00 C646.63,361.00 646.00,363.26 646.00,370.42 C646.00,381.49 648.34,379.99 649.37,368.25 ZM 712.07 957.37 C709.28,953.82 709.24,946.76 712.00,944.00 C714.23,941.77 716.20,941.50 719.07,943.04 C721.81,944.50 721.89,955.88 719.17,958.35 C716.58,960.69 714.46,960.40 712.07,957.37 ZM 298.00 946.48 C298.00,944.69 298.75,943.67 300.57,942.98 C304.13,941.62 304.72,941.72 307.07,944.07 C309.98,946.98 308.06,949.00 302.38,949.00 C298.36,949.00 298.00,948.79 298.00,946.48 ZM 452.00 958.00 C450.55,956.55 450.00,954.67 450.00,951.19 C450.00,944.66 451.54,942.77 456.54,943.18 L 460.50 943.50 L 460.80 949.87 C461.03,954.77 460.71,956.66 459.40,958.12 C457.19,960.55 454.51,960.51 452.00,958.00 ZM 478.02 958.22 C476.30,956.83 475.78,955.27 475.66,951.13 C475.52,946.66 475.87,945.53 477.86,943.91 C480.95,941.41 483.45,941.49 485.96,944.19 C488.73,947.16 488.71,953.83 485.93,957.37 C483.51,960.44 481.09,960.70 478.02,958.22 ZM 538.61 958.12 C536.08,955.32 535.51,949.85 537.38,946.23 C540.89,939.44 548.25,941.98 548.80,950.16 C549.32,957.94 542.95,962.92 538.61,958.12 ZM 602.54 948.07 C601.61,946.56 603.63,943.33 605.88,942.74 C608.66,942.01 612.50,944.21 612.50,946.53 C612.50,948.17 611.71,948.55 607.84,948.80 C605.28,948.97 602.89,948.64 602.54,948.07 ZM 651.20 958.80 C648.04,955.64 650.72,952.00 656.20,952.00 C659.56,952.00 660.00,952.28 660.00,954.44 C660.00,958.56 653.95,961.55 651.20,958.80 ZM 687.20 958.80 C684.04,955.64 686.72,952.00 692.20,952.00 C695.56,952.00 696.00,952.28 696.00,954.44 C696.00,958.56 689.95,961.55 687.20,958.80 ZM 283.26 885.60 C279.71,882.35 279.53,881.87 279.17,874.75 C278.59,863.12 281.51,859.00 290.36,859.00 C293.73,859.00 295.61,859.65 297.92,861.59 C300.94,864.13 301.00,864.35 301.00,873.19 C301.00,882.10 300.96,882.24 297.60,885.60 C292.91,890.29 288.38,890.29 283.26,885.60 ZM 231.57 887.43 C226.71,882.57 232.48,877.01 242.38,877.00 L 248.25 877.00 L 247.62 880.12 C247.28,881.84 247.00,883.56 247.00,883.94 C247.00,884.31 246.08,885.61 244.96,886.81 C242.43,889.53 234.06,889.92 231.57,887.43 ZM 331.00 868.62 C331.00,865.53 334.03,860.31 336.48,859.19 C340.81,857.22 346.37,857.70 348.76,860.25 C351.22,862.88 353.26,867.77 352.45,869.08 C352.14,869.59 347.18,870.00 341.44,870.00 C333.24,870.00 331.00,869.70 331.00,868.62 ZM 501.31 888.90 C493.12,886.53 491.67,877.53 498.30,870.25 C501.71,866.50 504.05,867.39 510.91,875.06 L 517.24 882.12 L 514.87 884.69 C512.67,887.07 507.08,890.12 505.28,889.91 C504.85,889.86 503.07,889.40 501.31,888.90 ZM 503.72 853.75 C498.23,847.10 501.58,840.02 509.61,841.32 C514.35,842.09 516.00,843.62 516.00,847.24 C516.00,849.41 514.99,851.16 512.30,853.62 C510.27,855.48 508.11,857.00 507.51,857.00 C506.90,857.00 505.20,855.54 503.72,853.75 ZM 855.27 889.49 C848.96,886.80 845.86,877.10 848.26,867.54 C849.21,863.72 850.29,862.04 852.90,860.29 C858.07,856.81 862.14,857.26 866.96,861.85 L 871.00 865.69 L 871.00 873.48 C871.00,879.63 870.56,881.97 868.91,884.64 C865.65,889.92 860.53,891.74 855.27,889.49 ZM 622.00 701.09 L 622.00 681.00 L 639.25 681.04 C657.50,681.09 661.07,681.73 667.49,686.14 C672.40,689.50 673.50,692.23 673.50,701.06 C673.50,708.22 673.26,709.11 670.45,712.59 C664.70,719.69 661.93,720.46 640.75,720.84 L 622.00 721.19 L 622.00 701.09 ZM 242.60 492.26 C241.66,491.33 241.93,475.66 242.90,474.12 C244.85,471.05 246.00,474.34 246.00,482.95 C246.00,489.61 245.65,491.92 244.60,492.32 C243.83,492.62 242.93,492.59 242.60,492.26 ZM 253.59 490.15 C253.30,489.68 253.35,484.69 253.69,479.07 C254.42,467.00 255.95,463.84 259.75,466.53 C261.84,468.00 262.00,468.86 262.00,478.58 C262.00,488.90 261.96,489.06 259.43,490.02 C256.28,491.23 254.28,491.27 253.59,490.15 ZM 271.00 478.01 C271.00,464.34 272.35,460.71 277.28,461.19 C279.48,461.41 280.84,462.27 281.71,464.00 C283.42,467.39 283.45,485.40 281.75,486.75 C281.06,487.30 278.36,488.06 275.75,488.44 L 271.00 489.12 L 271.00 478.01 ZM 474.98 485.75 C474.97,484.51 476.43,479.90 478.23,475.50 C480.85,469.10 482.80,466.18 488.00,460.91 C494.45,454.37 497.44,452.47 505.88,449.53 C512.90,447.08 516.06,447.37 528.61,451.66 C534.58,453.69 544.02,462.67 547.96,470.08 C550.84,475.48 551.09,476.46 549.78,477.42 C548.95,478.03 542.47,479.57 535.38,480.84 C528.30,482.11 520.92,483.56 519.00,484.05 C514.94,485.09 485.51,488.02 479.25,488.01 C475.52,488.00 475.00,487.73 474.98,485.75 ZM 293.42 485.65 C293.10,484.81 292.98,478.52 293.17,471.66 C293.55,457.48 294.64,455.00 300.54,455.00 C305.91,455.00 307.00,457.87 307.00,471.99 C307.00,485.56 307.38,484.93 298.25,486.46 C294.91,487.02 293.88,486.85 293.42,485.65 ZM 320.00 470.34 C320.00,458.93 320.30,456.00 321.69,453.97 C324.06,450.52 324.98,450.03 329.26,450.02 C332.39,450.00 333.34,450.51 334.88,453.04 C336.41,455.57 336.74,458.27 336.79,469.03 C336.83,476.14 336.55,482.15 336.18,482.38 C335.81,482.61 332.01,483.12 327.75,483.51 L 320.00 484.23 L 320.00 470.34 ZM 351.00 467.74 C351.00,448.47 352.35,445.00 359.85,445.00 C364.44,445.00 365.92,445.92 368.04,450.08 C369.69,453.31 370.00,455.99 370.00,466.90 C370.00,474.04 369.66,480.08 369.25,480.32 C368.84,480.56 364.56,481.08 359.75,481.47 L 351.00 482.18 L 351.00 467.74 ZM 402.09 478.39 C399.17,474.68 398.73,472.33 399.16,462.91 C399.48,455.82 399.82,454.56 401.90,452.88 C404.76,450.57 407.57,451.14 410.78,454.67 C412.92,457.03 413.04,457.90 412.78,468.84 L 412.50 480.50 L 408.36 480.80 C404.87,481.06 403.90,480.69 402.09,478.39 ZM 423.71 480.38 C422.59,479.26 422.88,460.64 424.07,457.23 C425.31,453.68 426.63,452.94 429.70,454.08 C433.73,455.58 435.10,460.07 434.79,470.77 L 434.50 480.50 L 429.46 480.79 C426.69,480.96 424.10,480.77 423.71,480.38 ZM 242.01 441.25 C242.01,433.37 243.42,426.00 244.92,426.00 C247.30,426.00 248.20,429.34 247.85,436.88 C247.58,442.90 247.04,445.30 245.59,446.90 C244.55,448.05 243.31,449.00 242.85,449.00 C242.38,449.00 242.00,445.51 242.01,441.25 ZM 254.88 442.25 C254.82,441.84 254.86,437.03 254.99,431.56 C255.19,422.40 255.72,420.21 258.69,416.09 C258.85,415.86 259.89,416.50 260.99,417.49 C262.74,419.08 263.00,420.57 263.00,429.17 L 263.00 439.03 L 259.75 441.01 C256.26,443.14 255.07,443.44 254.88,442.25 ZM 272.39 434.58 C272.05,433.68 272.08,428.25 272.48,422.52 C273.09,413.51 273.51,411.74 275.55,409.55 C278.39,406.48 279.39,406.39 282.00,409.00 C283.74,410.74 284.00,412.33 284.00,421.35 C284.00,433.03 283.35,434.30 276.76,435.52 C273.79,436.08 272.89,435.88 272.39,434.58 ZM 294.67 429.33 C294.30,428.97 294.00,423.63 294.00,417.48 C294.00,407.49 294.24,405.93 296.28,402.90 C297.93,400.45 299.44,399.41 301.69,399.19 C306.86,398.69 308.00,401.47 308.00,414.66 C308.00,427.05 308.14,426.78 301.00,428.70 C295.56,430.16 295.50,430.17 294.67,429.33 ZM 321.00 410.86 C321.00,398.73 321.25,396.70 323.08,393.59 C324.60,391.01 326.08,389.89 328.57,389.42 C336.14,388.00 338.24,391.49 338.81,406.49 C339.06,413.08 338.82,418.49 338.23,419.55 C337.53,420.80 334.71,421.86 329.11,422.98 L 321.00 424.60 L 321.00 410.86 ZM 499.68 421.60 C499.39,420.85 499.60,418.50 500.15,416.37 C501.01,413.01 505.89,384.80 505.97,382.75 C505.99,382.34 509.78,382.00 514.41,382.00 L 522.81 382.00 L 523.52 387.25 C523.90,390.14 525.12,396.55 526.21,401.50 C529.20,415.01 530.03,420.38 529.23,421.10 C528.83,421.45 522.13,422.02 514.35,422.35 C502.94,422.84 500.10,422.69 499.68,421.60 ZM 277.00 375.00 C277.00,369.67 277.22,369.00 279.00,369.00 C280.67,369.00 281.00,369.67 281.00,373.07 C281.00,377.33 279.60,381.00 277.96,381.00 C277.43,381.00 277.00,378.30 277.00,375.00 ZM 295.00 367.57 C295.00,361.62 295.19,361.00 297.05,361.00 C298.92,361.00 299.07,361.52 298.80,367.24 C298.56,372.25 298.15,373.55 296.75,373.81 C295.23,374.10 295.00,373.29 295.00,367.57 ZM 508.42 358.25 C508.80,355.09 509.79,347.10 510.61,340.50 C511.43,333.90 512.37,325.88 512.70,322.68 C513.38,315.96 514.96,316.90 514.98,324.04 C514.99,326.54 515.62,331.04 516.37,334.04 C518.21,341.36 520.43,360.45 519.67,362.42 C519.22,363.60 517.64,364.00 513.39,364.00 L 507.72 364.00 L 508.42 358.25 ZM 436.39 337.10 C428.65,332.38 425.65,321.70 430.18,315.02 C431.48,313.11 434.11,310.48 436.02,309.19 C438.94,307.21 440.44,306.89 445.30,307.23 C450.55,307.60 451.51,308.04 455.30,311.84 C459.41,315.96 459.50,316.17 459.35,322.48 C459.17,329.79 457.19,333.48 451.61,336.93 C447.35,339.57 440.56,339.64 436.39,337.10 ZM 449.38 322.70 C451.17,320.29 451.26,319.77 449.98,318.94 C449.17,318.41 446.92,318.10 445.00,318.24 C442.19,318.45 441.43,318.96 441.17,320.82 C440.99,322.10 441.10,323.82 441.42,324.64 C442.32,327.00 447.04,325.86 449.38,322.70 ZM 428.35 296.75 C427.00,294.57 430.15,294.00 443.45,294.00 C455.27,294.00 457.89,294.26 458.36,295.50 C458.83,296.71 457.84,297.04 453.22,297.22 C441.07,297.70 428.79,297.47 428.35,296.75 ZM 587.27 259.75 C586.13,258.51 583.83,254.46 582.16,250.75 L 579.13 244.00 L 583.56 244.00 L 588.00 244.00 L 588.00 249.59 C588.00,253.66 588.54,255.87 589.99,257.71 C593.24,261.85 590.86,263.64 587.27,259.75 ZM 436.43 259.67 C436.13,258.89 436.02,256.05 436.19,253.37 L 436.50 248.50 L 444.30 248.21 L 452.10 247.91 L 451.80 254.21 L 451.50 260.50 L 444.24 260.79 C438.68,261.02 436.84,260.75 436.43,259.67 ZM 577.20 240.80 C576.54,240.14 576.00,237.93 576.00,235.89 L 576.00 232.18 L 581.50 234.34 C584.52,235.53 586.99,236.73 586.99,237.00 C586.98,237.47 579.52,242.00 578.75,242.00 C578.56,242.00 577.86,241.46 577.20,240.80 ZM 390.00 177.91 C386.42,177.43 379.23,176.58 374.00,176.01 C362.71,174.78 348.60,173.17 348.25,173.07 C344.94,172.13 369.27,150.44 385.50,139.86 C389.35,137.35 393.85,134.54 395.50,133.62 C397.15,132.69 400.30,130.93 402.50,129.71 C416.86,121.70 458.00,106.81 458.00,109.62 C458.00,109.98 453.29,114.75 447.53,120.20 C431.33,135.56 422.86,146.67 411.50,167.50 L 405.50 178.50 L 401.00 178.64 C398.52,178.71 393.58,178.38 390.00,177.91 ZM 617.62 172.25 C606.66,149.69 590.24,129.30 568.87,111.72 L 565.50 108.95 L 570.00 109.56 C584.36,111.52 614.64,123.84 634.50,135.80 C651.91,146.28 679.32,169.06 677.70,171.68 C677.35,172.24 669.96,173.45 661.28,174.37 C652.60,175.29 641.90,176.48 637.50,177.02 C633.10,177.56 627.46,178.00 624.96,178.00 C620.42,178.00 620.41,178.00 617.62,172.25 Z" fill="rgb(241,237,232)"/>
</g>
</svg>